# Blender 4.2.0
# www.blender.org
mtllib cabinet.mtl
o Cube.006
v 0.324016 0.634654 -0.946193
v 0.324016 0.020122 -0.946193
v 0.324016 0.634654 0.946193
v 0.277760 0.634654 -0.946193
v 0.324016 0.527825 -0.803414
v 0.324016 0.126951 -0.803414
v 0.324016 0.527825 0.803414
v 0.356013 0.501471 -0.771749
v 0.356013 0.153305 -0.771749
v 0.356013 0.501471 0.771749
v 0.321397 0.470807 -0.711707
v 0.321397 0.183969 -0.711707
v 0.321397 0.470807 0.711707
v 0.321397 0.183969 0.711707
v 0.356013 0.153305 0.771749
v 0.324016 0.126951 0.803414
v 0.324016 0.020122 0.946193
v 0.277760 0.020122 0.946193
v 0.277760 0.020122 -0.946193
v 0.277760 0.634654 0.946193
v 0.270048 1.947478 -0.996540
v 0.270048 1.947478 0.996540
v -0.270048 1.947478 -0.996540
v -0.270048 1.947478 0.996540
v 0.293266 1.999453 -1.082220
v 0.293266 1.999453 1.082220
v -0.293266 1.999453 -1.082220
v -0.293266 1.999453 1.082220
v 0.298167 2.036853 -1.100306
v 0.298167 2.036853 1.100306
v -0.298167 2.036853 -1.100306
v -0.298167 2.036853 1.100306
v 0.298167 2.069405 -1.100306
v 0.298167 2.069405 1.100306
v -0.298167 2.069405 -1.100306
v -0.298167 2.069405 1.100306
v 0.285818 1.973466 -1.054734
v -0.285818 1.973466 -1.054734
v -0.285818 1.973466 1.054734
v 0.285818 1.973466 1.054734
v 0.162931 0.682421 0.957520
v 0.162931 1.968283 0.957520
v 0.162931 0.682421 0.871162
v 0.162931 1.968283 0.871162
v 0.249290 0.682421 0.957520
v 0.249290 1.968283 0.957520
v 0.249290 0.682421 0.871162
v 0.249290 1.968283 0.871162
v 0.162931 1.883584 0.957520
v 0.162931 1.883584 0.871162
v 0.249290 1.883584 0.871162
v 0.249290 1.883584 0.957520
v 0.162931 0.777947 0.871162
v 0.249290 0.777947 0.871162
v 0.249290 0.777947 0.957520
v 0.162931 0.777947 0.957520
v 0.168463 0.797219 0.951988
v 0.168463 1.325478 0.951988
v 0.168463 1.864187 0.876694
v 0.168463 1.325478 0.876694
v 0.243758 1.864187 0.876694
v 0.243758 1.325478 0.876694
v 0.243758 1.864187 0.951988
v 0.243758 1.325478 0.951988
v 0.168463 1.864187 0.951988
v 0.168463 0.797219 0.876694
v 0.243758 0.797219 0.876694
v 0.243758 0.797219 0.951988
v 0.162931 0.682421 -0.865411
v 0.162931 1.968283 -0.865411
v 0.162931 0.682421 -0.951770
v 0.162931 1.968283 -0.951770
v 0.249290 0.682421 -0.865411
v 0.249290 1.968283 -0.865411
v 0.249290 0.682421 -0.951770
v 0.249290 1.968283 -0.951770
v 0.162931 1.883584 -0.865411
v 0.162931 1.883584 -0.951770
v 0.249290 1.883584 -0.951770
v 0.249290 1.883584 -0.865411
v 0.162931 0.777947 -0.951770
v 0.249290 0.777947 -0.951770
v 0.249290 0.777947 -0.865411
v 0.162931 0.777947 -0.865411
v 0.168463 0.797219 -0.870943
v 0.168463 1.325478 -0.870943
v 0.168463 1.864187 -0.946238
v 0.168463 1.325478 -0.946238
v 0.243758 1.864187 -0.946238
v 0.243758 1.325478 -0.946238
v 0.243758 1.864187 -0.870943
v 0.243758 1.325478 -0.870943
v 0.168463 1.864187 -0.870943
v 0.168463 0.797219 -0.946238
v 0.243758 0.797219 -0.946238
v 0.243758 0.797219 -0.870943
v -0.251362 0.682421 0.957520
v -0.251362 1.968283 0.957520
v -0.251362 0.682421 0.871162
v -0.251362 1.968283 0.871162
v -0.165004 0.682421 0.957520
v -0.165004 1.968283 0.957520
v -0.165004 0.682421 0.871162
v -0.165004 1.968283 0.871162
v -0.251362 1.883584 0.957520
v -0.251362 1.883584 0.871162
v -0.165004 1.883584 0.871162
v -0.165004 1.883584 0.957520
v -0.251362 0.777947 0.871162
v -0.165004 0.777947 0.871162
v -0.165004 0.777947 0.957520
v -0.251362 0.777947 0.957520
v -0.245830 0.797219 0.951988
v -0.245830 1.325478 0.951988
v -0.245830 1.864187 0.876694
v -0.245830 1.325478 0.876694
v -0.170536 1.864187 0.876694
v -0.170536 1.325478 0.876694
v -0.170536 1.864187 0.951988
v -0.170536 1.325478 0.951988
v -0.245830 1.864187 0.951988
v -0.245830 0.797219 0.876694
v -0.170536 0.797219 0.876694
v -0.170536 0.797219 0.951988
v -0.251362 0.682421 -0.865411
v -0.251362 1.968283 -0.865411
v -0.251362 0.682421 -0.951770
v -0.251362 1.968283 -0.951770
v -0.165004 0.682421 -0.865411
v -0.165004 1.968283 -0.865411
v -0.165004 0.682421 -0.951770
v -0.165004 1.968283 -0.951770
v -0.251362 1.883584 -0.865411
v -0.251362 1.883584 -0.951770
v -0.165004 1.883584 -0.951770
v -0.165004 1.883584 -0.865411
v -0.251362 0.777947 -0.951770
v -0.165004 0.777947 -0.951770
v -0.165004 0.777947 -0.865411
v -0.251362 0.777947 -0.865411
v -0.245830 0.797219 -0.870943
v -0.245830 1.325478 -0.870943
v -0.245830 1.864187 -0.946238
v -0.245830 1.325478 -0.946238
v -0.170536 1.864187 -0.946238
v -0.170536 1.325478 -0.946238
v -0.170536 1.864187 -0.870943
v -0.170536 1.325478 -0.870943
v -0.245830 1.864187 -0.870943
v -0.245830 0.797219 -0.946238
v -0.170536 0.797219 -0.946238
v -0.170536 0.797219 -0.870943
v -0.241872 1.091005 0.925755
v -0.241872 1.091005 -0.925755
v -0.241872 1.117573 0.925755
v 0.241872 1.091005 0.925755
v 0.241872 1.091005 -0.925755
v 0.241872 1.117573 0.925755
v 0.241872 1.117573 -0.925755
v -0.241872 1.117573 -0.925755
v 0.228254 -0.028938 -0.996540
v 0.257807 -0.028938 -0.984299
v 0.228254 0.711072 -0.996540
v -0.228254 -0.028938 -0.996540
v -0.228254 0.711072 -0.996540
v -0.257807 -0.028938 -0.984299
v -0.257807 0.711072 -0.984299
v -0.270048 -0.028938 -0.954746
v -0.270048 0.711072 -0.954746
v -0.270048 -0.028938 0.954746
v -0.257807 -0.028938 0.984299
v -0.270048 0.711072 0.954746
v -0.257807 0.711072 0.984299
v -0.228254 0.711072 0.996540
v -0.228254 -0.028938 0.996540
v 0.228254 0.711072 0.996540
v 0.257807 0.711072 0.984299
v 0.228254 -0.028938 0.996540
v 0.257807 -0.028938 0.984299
v 0.270048 -0.028938 0.954746
v 0.270048 0.711072 0.954746
v 0.270048 -0.028938 -0.954746
v 0.270048 0.711072 -0.954746
v 0.257807 0.711072 -0.984299
v -0.241872 1.499931 0.925755
v -0.241872 1.499931 -0.925755
v -0.241872 1.526500 0.925755
v 0.241872 1.499931 0.925755
v 0.241872 1.499931 -0.925755
v 0.241872 1.526500 0.925755
v 0.241872 1.526500 -0.925755
v -0.241872 1.526500 -0.925755
v 0.270048 1.947478 0.996540
v -0.270048 1.947478 0.996540
v 0.270048 1.947478 -0.996540
v -0.270048 1.947478 -0.996540
v -0.233707 1.898510 0.881669
v -0.233707 1.956763 0.881669
v -0.233707 1.898510 -0.881669
v -0.233707 1.956763 -0.881669
v 0.233707 1.898510 0.881669
v 0.233707 1.956763 0.881669
v 0.233707 1.898510 -0.881669
v 0.233707 1.956763 -0.881669
vn 1.0000 -0.0000 -0.0000
vn -0.0000 -0.0000 -1.0000
vn -0.0000 1.0000 -0.0000
vn 0.7034 -0.0000 -0.7108
vn 0.6358 0.7719 -0.0000
vn 0.8663 -0.0000 0.4995
vn 0.6631 -0.7485 -0.0000
vn 0.8663 -0.0000 -0.4995
vn 0.6631 0.7485 -0.0000
vn 0.7034 -0.0000 0.7108
vn 0.6358 -0.7719 -0.0000
vn -0.0000 -0.0000 1.0000
vn -0.0000 -1.0000 -0.0000
vn -0.0000 -0.8181 -0.5751
vn -0.0000 -0.5755 -0.8178
vn -0.0000 0.8953 -0.4455
vn -0.0000 -0.8181 0.5751
vn -0.0000 -0.5755 0.8178
vn -0.9480 -0.3182 -0.0000
vn -0.9853 -0.1708 -0.0000
vn 0.9480 -0.3182 -0.0000
vn 0.9853 -0.1708 -0.0000
vn -0.0000 -0.2146 -0.9767
vn 0.9985 -0.0543 -0.0000
vn -0.9985 -0.0543 -0.0000
vn -0.0000 -0.2146 0.9767
vn -1.0000 -0.0000 -0.0000
vn 0.8549 -0.5188 -0.0000
vn -0.8549 -0.5188 -0.0000
vn -0.0000 0.8953 0.4455
vn -0.0000 0.2759 -0.9612
vn -0.0000 -0.2742 0.9617
vn -0.0000 0.2759 0.9612
vn -0.0000 -0.2742 -0.9617
vn -0.9612 0.2759 -0.0000
vn 0.9612 0.2759 -0.0000
vn 0.9617 -0.2742 -0.0000
vn -0.9617 -0.2742 -0.0000
vn -0.0000 -0.2743 0.9617
vn 0.3827 -0.0000 -0.9239
vn 0.1951 -0.0000 -0.9808
vn -0.1951 -0.0000 -0.9808
vn -0.3827 -0.0000 -0.9239
vn -0.9239 -0.0000 -0.3827
vn -0.9808 -0.0000 -0.1951
vn -0.9808 -0.0000 0.1951
vn -0.9239 -0.0000 0.3827
vn -0.1951 -0.0000 0.9808
vn -0.3827 -0.0000 0.9239
vn 0.1951 -0.0000 0.9808
vn 0.3827 -0.0000 0.9239
vn 0.9239 -0.0000 0.3827
vn 0.9808 -0.0000 0.1951
vn 0.9808 -0.0000 -0.1951
vn 0.9239 -0.0000 -0.3827
vt 0.995718 0.197719
vt 0.632767 0.197719
vt 0.695861 0.113371
vt 0.932624 0.113371
vt 1.356249 -0.119993
vt 1.356249 -0.483004
vt 1.383575 -0.483004
vt 1.383575 -0.119993
vt 0.632767 -0.920231
vt 0.695861 -0.835883
vt 0.979161 1.315670
vt 0.951835 1.315670
vt 0.951835 0.197719
vt 0.979161 0.197719
vt 1.430658 -0.246203
vt 1.430658 -0.483004
vt 1.449561 -0.467189
vt 1.449561 -0.261523
vt 1.874478 1.329061
vt 1.874478 0.379807
vt 1.893380 0.398513
vt 1.893380 1.310354
vt 1.487128 1.169046
vt 1.281496 1.169046
vt 1.300063 1.133575
vt 1.469474 1.133575
vt 1.598942 1.728875
vt 1.598942 0.817035
vt 1.619391 0.852506
vt 1.619391 1.693404
vt 1.300063 0.292676
vt 1.469474 0.292676
vt 1.281496 0.257205
vt 1.487128 0.257205
vt 1.892679 -0.920231
vt 1.892679 -0.008390
vt 1.872229 -0.043861
vt 1.872229 -0.884760
vt 1.449561 -0.246203
vt 1.449561 -0.009402
vt 1.430658 -0.024723
vt 1.430658 -0.230388
vt 1.911581 -0.920231
vt 1.911581 0.029022
vt 1.892679 0.010316
vt 1.892679 -0.901525
vt 0.995718 -0.920231
vt 0.932624 -0.835883
vt 1.356249 0.243017
vt 1.356249 -0.119993
vt 1.383576 -0.119993
vt 1.383576 0.243017
vt 1.872229 0.197719
vt 1.844903 0.197719
vt 1.844903 -0.920231
vt 1.872229 -0.920231
vt 0.290666 0.342201
vt 0.628367 0.342201
vt 0.632767 0.358438
vt 0.286266 0.358438
vt 0.619050 0.307822
vt 0.299982 0.307822
vt 0.628367 -0.903994
vt 0.290666 -0.903994
vt 0.286266 -0.920231
vt 1.676248 -0.893309
vt 1.676248 0.352885
vt 1.660781 0.369123
vt 1.660781 -0.909547
vt 1.603835 -0.456082
vt 1.603835 0.790112
vt 1.588388 0.806350
vt 1.588388 -0.472319
vt 1.356249 -0.480109
vt 1.356249 -0.133608
vt 1.334015 -0.130712
vt 1.334015 -0.483004
vt 1.566234 0.817034
vt 1.566234 -0.483004
vt 1.638615 0.379807
vt 1.638615 -0.920231
vt 1.356249 -0.127817
vt 1.356249 0.218683
vt 1.334015 0.221579
vt 1.334015 -0.130713
vt 1.547009 0.817034
vt 1.547009 -0.483004
vt 1.619391 0.379807
vt 1.619391 -0.920231
vt 1.314786 0.221579
vt 1.314786 -0.130713
vt 1.314786 -0.130712
vt 1.314786 -0.483004
vt 0.286266 0.379807
vt -0.066025 0.379807
vt -0.066025 -0.920231
vt 1.619391 -0.421703
vt 1.619391 0.755734
vt 1.691851 -0.858930
vt 1.691851 0.318506
vt 0.619050 -0.869615
vt 0.299982 -0.869615
vt 1.772443 1.189274
vt 1.772443 1.139256
vt 1.823461 1.139256
vt 1.823461 1.189274
vt 0.572044 0.408470
vt 0.572044 0.358438
vt 0.623061 0.358438
vt 0.623061 0.408470
vt 1.772443 0.429831
vt 1.772443 0.379807
vt 1.823461 0.379807
vt 1.823461 0.429831
vt 0.219752 0.429839
vt 0.219752 0.379807
vt 0.270769 0.379807
vt 0.270769 0.429839
vt -0.889434 1.336545
vt -0.889434 1.387562
vt -0.940452 1.387562
vt -0.940452 1.336545
vt -0.838417 1.336545
vt -0.838417 1.387562
vt -0.889434 1.387562
vt -0.889434 1.336545
vt 0.623061 1.061582
vt 0.572044 1.061582
vt 0.575312 1.050241
vt 0.619793 1.050241
vt 0.267501 0.441341
vt 0.223020 0.441341
vt 0.270769 1.082951
vt 0.219752 1.082951
vt 0.223020 1.071610
vt 0.267501 1.071610
vt 0.619793 0.419972
vt 0.575312 0.419972
vt 1.823461 1.842196
vt 1.772443 1.842196
vt 1.775711 1.830905
vt 1.820192 1.830905
vt 1.823461 1.082837
vt 1.772443 1.082837
vt 1.775711 1.071528
vt 1.820192 1.071528
vt 1.820192 0.441361
vt 1.775711 0.441361
vt 1.820192 1.200819
vt 1.775711 1.200819
vt 1.772443 1.898608
vt 1.823461 1.898608
vt 0.572044 1.118010
vt 0.623061 1.118010
vt 0.219752 1.139379
vt 0.270769 1.139379
vt 0.223020 0.759562
vt 0.267501 0.759562
vt 1.775711 0.759530
vt 1.820192 0.759530
vt 0.575312 0.738193
vt 0.619793 0.738193
vt 1.775711 1.518947
vt 1.820192 1.518947
vt 1.823461 1.189274
vt 1.823461 1.139256
vt 1.874478 1.139256
vt 1.874478 1.189274
vt 1.487128 0.307238
vt 1.487128 0.257205
vt 1.538146 0.257205
vt 1.538146 0.307238
vt 1.793885 -0.870207
vt 1.793885 -0.920231
vt 1.844903 -0.920231
vt 1.844903 -0.870207
vt 1.619391 0.429839
vt 1.619391 0.379807
vt 1.670409 0.379807
vt 1.670409 0.429839
vt -0.787400 1.336545
vt -0.787400 1.387562
vt -0.838417 1.387562
vt -0.838417 1.336545
vt -0.736382 1.336545
vt -0.736382 1.387562
vt 1.538146 0.960349
vt 1.487128 0.960349
vt 1.490396 0.949009
vt 1.534878 0.949009
vt 1.667141 0.441341
vt 1.622660 0.441341
vt 1.670409 1.082951
vt 1.619391 1.082951
vt 1.622660 1.071610
vt 1.667141 1.071610
vt 1.534878 0.318740
vt 1.490396 0.318740
vt 1.874478 1.842196
vt 1.823461 1.842196
vt 1.826729 1.830905
vt 1.871210 1.830905
vt 1.844903 -0.217201
vt 1.793885 -0.217201
vt 1.797153 -0.228510
vt 1.841635 -0.228510
vt 1.841635 -0.858677
vt 1.797153 -0.858677
vt 1.871210 1.200819
vt 1.826729 1.200819
vt 1.823461 1.898608
vt 1.874478 1.898608
vt 1.487128 1.016778
vt 1.538146 1.016778
vt 1.793885 -0.160782
vt 1.844903 -0.160782
vt 1.619391 1.139379
vt 1.670409 1.139379
vt 1.622660 0.759562
vt 1.667141 0.759562
vt 1.797153 -0.540508
vt 1.841635 -0.540508
vt 1.490396 0.636960
vt 1.534878 0.636960
vt 1.826729 1.518947
vt 1.871210 1.518947
vt 0.219752 1.189397
vt 0.270769 1.189397
vt 1.670409 0.429839
vt 1.670409 0.379807
vt 1.721426 0.379807
vt 1.721426 0.429839
vt 0.572044 1.168035
vt 0.623061 1.168035
vt 1.691851 -0.870199
vt 1.691851 -0.920231
vt 1.742868 -0.920231
vt 1.742868 -0.870199
vt -0.685365 1.336545
vt -0.685365 1.387562
vt -0.736382 1.387562
vt -0.736382 1.336545
vt -0.634348 1.336545
vt -0.634348 1.387562
vt -0.685365 1.387562
vt -0.685365 1.336545
vt 1.721426 1.082951
vt 1.673677 1.071610
vt 1.718158 1.071610
vt 1.739600 -0.858697
vt 1.695119 -0.858697
vt 1.742868 -0.217087
vt 1.691851 -0.217087
vt 1.695119 -0.228428
vt 1.739600 -0.228428
vt 1.718158 0.441341
vt 1.673677 0.441341
vt 0.270769 1.842319
vt 0.219752 1.842319
vt 0.223020 1.831028
vt 0.267501 1.831028
vt 0.623061 1.821040
vt 0.572044 1.821040
vt 0.575312 1.809731
vt 0.619793 1.809731
vt 0.619793 1.179564
vt 0.575312 1.179564
vt 0.267501 1.200942
vt 0.223020 1.200942
vt 0.219752 1.898731
vt 0.270769 1.898731
vt 1.670409 1.139379
vt 1.721426 1.139379
vt 0.572044 1.877460
vt 0.623061 1.877460
vt 1.691851 -0.160659
vt 1.742868 -0.160659
vt 1.695119 -0.540476
vt 1.739600 -0.540476
vt 0.575312 1.497733
vt 0.619793 1.497733
vt 1.673677 0.759562
vt 1.718158 0.759562
vt 0.223020 1.519070
vt 0.267501 1.519070
vt 1.619391 1.189397
vt 1.619391 1.139379
vt 1.670409 1.139379
vt 1.670409 1.189397
vt 1.721426 0.429839
vt 1.721426 0.379807
vt 1.772444 0.379807
vt 1.772444 0.429839
vt 1.823461 0.429831
vt 1.823461 0.379807
vt 1.874478 0.379807
vt 1.874478 0.429831
vt 1.742868 -0.870199
vt 1.742868 -0.920231
vt 1.793885 -0.920231
vt 1.793885 -0.870199
vt -0.583331 1.336545
vt -0.583331 1.387562
vt -0.634348 1.387562
vt -0.532314 1.336545
vt -0.532314 1.387562
vt 1.772444 1.082951
vt 1.721426 1.082951
vt 1.724694 1.071610
vt 1.769175 1.071610
vt 1.790617 -0.858697
vt 1.746136 -0.858697
vt 1.793885 -0.217087
vt 1.742868 -0.217087
vt 1.746136 -0.228428
vt 1.790617 -0.228428
vt 1.769175 0.441341
vt 1.724694 0.441341
vt 1.670409 1.842319
vt 1.619391 1.842319
vt 1.622660 1.831028
vt 1.667140 1.831028
vt 1.874478 1.082837
vt 1.823461 1.082837
vt 1.826729 1.071528
vt 1.871210 1.071528
vt 1.871210 0.441361
vt 1.826729 0.441361
vt 1.667140 1.200942
vt 1.622660 1.200942
vt 1.619391 1.898731
vt 1.670409 1.898731
vt 1.721426 1.139379
vt 1.772444 1.139379
vt 1.874478 1.139256
vt 1.742868 -0.160659
vt 1.793885 -0.160659
vt 1.746136 -0.540476
vt 1.790617 -0.540476
vt 1.826729 0.759530
vt 1.871210 0.759530
vt 1.724694 0.759562
vt 1.769175 0.759562
vt 1.622660 1.519070
vt 1.667140 1.519070
vt -0.654674 1.336545
vt -0.940452 1.336545
vt -0.940452 0.242742
vt -0.654674 0.242742
vt 1.927271 0.173571
vt 1.911581 0.173571
vt 1.911581 -0.920231
vt 1.927271 -0.920231
vt 1.414964 -0.197226
vt 1.399270 -0.197226
vt 1.399270 -0.483004
vt 1.414964 -0.483004
vt 0.994853 1.291522
vt 0.979161 1.291522
vt 0.979161 0.197719
vt 0.994853 0.197719
vt -0.368897 1.336545
vt -0.368897 0.242742
vt 1.414964 0.088551
vt 1.399270 0.088551
vt 1.399270 -0.197226
vt 1.414964 -0.197226
vt 1.586101 1.169142
vt 1.586101 1.606274
vt 1.568642 1.606178
vt 1.568642 1.169046
vt 1.314787 0.232515
vt 1.307555 0.249974
vt 1.290096 0.257205
vt 1.020409 0.257205
vt 1.002950 0.249974
vt 0.995718 0.232515
vt 0.995718 -0.895541
vt 1.002950 -0.913000
vt 1.020409 -0.920231
vt 1.290096 -0.920231
vt 1.307555 -0.913000
vt 1.314787 -0.895541
vt 1.298954 1.606178
vt 1.298954 1.169046
vt 1.281496 1.606274
vt 1.281496 1.169142
vt -0.503030 -0.920231
vt -0.066224 -0.902772
vt -0.503229 -0.902773
vt -0.066224 0.225284
vt -0.503229 0.225284
vt -0.066025 0.242742
vt -0.503030 0.242742
vt 0.657457 1.375156
vt 0.639998 1.367925
vt 0.632767 1.350466
vt 0.632767 0.222410
vt 0.639998 0.204951
vt 0.657457 0.197719
vt 0.927144 0.197719
vt 0.944603 0.204951
vt 0.951835 0.222410
vt 0.951835 1.350466
vt 0.944603 1.367925
vt 0.927144 1.375156
vt 1.601933 -0.483099
vt 1.601933 -0.920231
vt 1.619391 -0.920136
vt 1.619391 -0.483004
vt 1.332245 -0.483099
vt 1.332245 -0.920231
vt 1.314787 -0.483004
vt 1.314787 -0.920136
vt -0.940290 -0.920231
vt -0.503229 -0.920231
vt -0.503390 -0.902772
vt -0.940452 -0.902772
vt -0.503391 0.225284
vt -0.940452 0.225284
vt -0.503229 0.242742
vt -0.940290 0.242742
vt 0.572043 1.452241
vt 0.286266 1.452241
vt 0.286266 0.358438
vt 0.572043 0.358438
vt 1.924762 1.473609
vt 1.909072 1.473609
vt 1.909072 0.379807
vt 1.924762 0.379807
vt 1.430658 -0.197226
vt 1.430658 -0.483004
vt 1.909072 1.473609
vt 1.893380 1.473609
vt 1.893380 0.379807
vt 0.219752 1.473610
vt -0.066025 1.473610
vt -0.066025 0.379807
vt 0.219752 0.379807
vt 1.430658 0.088551
vt 1.414964 0.088551
vt 0.375000 0.000000
vt 0.625000 0.000000
vt 0.625000 0.250000
vt 0.375000 0.250000
vt 0.625000 0.500000
vt 0.375000 0.500000
vt 0.625000 0.750000
vt 0.375000 0.750000
vt 0.625000 1.000000
vt 0.375000 1.000000
vt 0.125000 0.500000
vt 0.125000 0.750000
s 1
usemtl Material.001
f 2/1/1 1/2/1 5/3/1 6/4/1
f 19/5/2 4/6/2 1/7/2 2/8/2
f 1/2/1 3/9/1 7/10/1 5/3/1
f 1/11/3 4/12/3 20/13/3 3/14/3
f 6/15/4 5/16/4 8/17/4 9/18/4
f 5/19/5 7/20/5 10/21/5 8/22/5
f 9/23/6 8/24/6 11/25/6 12/26/6
f 8/27/7 10/28/7 13/29/7 11/30/7
f 13/31/1 12/26/1 11/25/1
f 13/31/1 14/32/1 12/26/1
f 10/33/8 15/34/8 14/32/8 13/31/8
f 15/35/9 9/36/9 12/37/9 14/38/9
f 7/39/10 16/40/10 15/41/10 10/42/10
f 16/43/11 6/44/11 9/45/11 15/46/11
f 3/9/1 17/47/1 16/48/1 7/10/1
f 17/47/1 2/1/1 6/4/1 16/48/1
f 17/49/12 3/50/12 20/51/12 18/52/12
f 19/53/13 2/54/13 17/55/13 18/56/13
f 37/57/14 38/58/14 27/59/15 25/60/15
f 23/61/16 21/62/16 195/62/3 196/61/3
f 39/63/17 40/64/17 26/65/18 28/9/18
f 38/66/19 39/67/19 28/68/20 27/69/20
f 40/70/21 37/71/21 25/72/22 26/73/22
f 25/74/15 27/75/15 31/76/23 29/77/23
f 26/73/22 25/72/22 29/78/24 30/79/24
f 27/69/20 28/68/20 32/80/25 31/81/25
f 28/82/18 26/83/18 30/84/26 32/85/26
f 30/79/24 29/78/24 33/86/1 34/87/1
f 31/81/25 32/80/25 36/88/27 35/89/27
f 32/85/26 30/84/26 34/90/12 36/91/12
f 29/77/23 31/76/23 35/92/2 33/93/2
f 34/65/3 33/94/3 35/95/3
f 34/65/3 35/95/3 36/96/3
f 22/97/28 21/98/28 37/71/21 40/70/21
f 23/99/29 24/100/29 39/67/19 38/66/19
f 24/101/30 22/102/30 40/64/17 39/63/17
f 21/62/16 23/61/16 38/58/14 37/57/14
f 49/103/27 42/104/27 44/105/27 50/106/27
f 50/107/2 44/108/2 48/109/2 51/110/2
f 51/111/1 48/112/1 46/113/1 52/114/1
f 52/115/12 46/116/12 42/117/12 49/118/12
f 43/119/13 47/120/13 45/121/13 41/122/13
f 48/123/3 44/124/3 42/125/3 46/126/3
f 54/127/31 53/128/31 66/129/31 67/130/31
f 52/115/32 49/118/32 65/131/32 63/132/32
f 56/133/33 55/134/33 68/135/33 57/136/33
f 50/107/34 51/110/34 61/137/34 59/138/34
f 53/139/35 56/140/35 57/141/35 66/142/35
f 55/143/36 54/144/36 67/145/36 68/146/36
f 51/111/37 52/114/37 63/147/37 61/148/37
f 49/103/38 50/106/38 59/149/38 65/150/38
f 41/151/27 56/140/27 53/139/27 43/152/27
f 43/153/2 53/128/2 54/127/2 47/154/2
f 47/104/1 54/144/1 55/143/1 45/105/1
f 45/155/12 55/134/12 56/133/12 41/156/12
f 68/135/12 64/157/12 58/158/12 57/136/12
f 67/145/1 62/159/1 64/160/1 68/146/1
f 66/129/2 60/161/2 62/162/2 67/130/2
f 57/141/27 58/163/27 60/164/27 66/142/27
f 64/157/12 63/132/12 65/131/12 58/158/12
f 62/159/1 61/148/1 63/147/1 64/160/1
f 60/161/2 59/138/2 61/137/2 62/162/2
f 58/163/27 65/150/27 59/149/27 60/164/27
f 77/165/27 70/166/27 72/167/27 78/168/27
f 78/169/2 72/170/2 76/171/2 79/172/2
f 79/173/1 76/174/1 74/175/1 80/176/1
f 80/177/12 74/178/12 70/179/12 77/180/12
f 71/181/13 75/182/13 73/183/13 69/184/13
f 76/185/3 72/186/3 70/182/3 74/181/3
f 82/187/31 81/188/31 94/189/31 95/190/31
f 80/177/39 77/180/39 93/191/39 91/192/39
f 84/193/33 83/194/33 96/195/33 85/196/33
f 78/169/34 79/172/34 89/197/34 87/198/34
f 81/199/35 84/200/35 85/201/35 94/202/35
f 83/203/36 82/204/36 95/205/36 96/206/36
f 79/173/37 80/176/37 91/207/37 89/208/37
f 77/165/38 78/168/38 87/209/38 93/210/38
f 69/211/27 84/200/27 81/199/27 71/212/27
f 71/213/2 81/188/2 82/187/2 75/214/2
f 75/215/1 82/204/1 83/203/1 73/216/1
f 73/217/12 83/194/12 84/193/12 69/218/12
f 96/195/12 92/219/12 86/220/12 85/196/12
f 95/205/1 90/221/1 92/222/1 96/206/1
f 94/189/2 88/223/2 90/224/2 95/190/2
f 85/201/27 86/225/27 88/226/27 94/202/27
f 92/219/12 91/192/12 93/191/12 86/220/12
f 90/221/1 89/208/1 91/207/1 92/222/1
f 88/223/2 87/198/2 89/197/2 90/224/2
f 86/225/27 93/210/27 87/209/27 88/226/27
f 105/227/27 98/155/27 100/156/27 106/228/27
f 106/229/2 100/230/2 104/231/2 107/232/2
f 107/233/1 104/153/1 102/154/1 108/234/1
f 108/235/12 102/236/12 98/237/12 105/238/12
f 99/239/13 103/240/13 101/241/13 97/242/13
f 104/243/3 100/244/3 98/245/3 102/246/3
f 110/247/31 109/193/31 122/248/31 123/249/31
f 108/235/32 105/238/32 121/250/32 119/251/32
f 112/252/33 111/253/33 124/254/33 113/255/33
f 106/229/34 107/232/34 117/256/34 115/257/34
f 109/258/35 112/259/35 113/260/35 122/261/35
f 111/262/36 110/263/36 123/264/36 124/265/36
f 107/233/37 108/234/37 119/266/37 117/267/37
f 105/227/38 106/228/38 115/268/38 121/269/38
f 97/270/27 112/259/27 109/258/27 99/271/27
f 99/272/2 109/193/2 110/247/2 103/273/2
f 103/274/1 110/263/1 111/262/1 101/275/1
f 101/276/12 111/253/12 112/252/12 97/277/12
f 124/254/12 120/278/12 114/279/12 113/255/12
f 123/264/1 118/280/1 120/281/1 124/265/1
f 122/248/2 116/282/2 118/283/2 123/249/2
f 113/260/27 114/284/27 116/285/27 122/261/27
f 120/278/12 119/251/12 121/250/12 114/279/12
f 118/280/1 117/267/1 119/266/1 120/281/1
f 116/282/2 115/257/2 117/256/2 118/283/2
f 114/284/27 121/269/27 115/268/27 116/285/27
f 133/286/27 126/287/27 128/288/27 134/289/27
f 134/290/2 128/291/2 132/292/2 135/293/2
f 135/294/1 132/295/1 130/296/1 136/297/1
f 136/298/12 130/299/12 126/300/12 133/301/12
f 127/302/13 131/303/13 129/304/13 125/243/13
f 132/305/3 128/306/3 126/303/3 130/302/3
f 138/307/31 137/308/31 150/309/31 151/310/31
f 136/298/39 133/301/39 149/311/39 147/312/39
f 140/313/33 139/314/33 152/315/33 141/316/33
f 134/290/34 135/293/34 145/317/34 143/318/34
f 137/319/35 140/320/35 141/321/35 150/322/35
f 139/323/36 138/324/36 151/325/36 152/326/36
f 135/294/37 136/297/37 147/327/37 145/328/37
f 133/286/38 134/289/38 143/329/38 149/330/38
f 125/331/27 140/320/27 137/319/27 127/332/27
f 127/333/2 137/308/2 138/307/2 131/334/2
f 131/166/1 138/324/1 139/323/1 129/335/1
f 129/336/12 139/314/12 140/313/12 125/337/12
f 152/315/12 148/338/12 142/339/12 141/316/12
f 151/325/1 146/340/1 148/341/1 152/326/1
f 150/309/2 144/342/2 146/343/2 151/310/2
f 141/321/27 142/344/27 144/345/27 150/322/27
f 148/338/12 147/312/12 149/311/12 142/339/12
f 146/340/1 145/328/1 147/327/1 148/341/1
f 144/342/2 143/318/2 145/317/2 146/343/2
f 142/344/27 149/330/27 143/329/27 144/345/27
f 154/346/13 157/347/13 156/348/13 153/349/13
f 153/350/27 155/351/27 160/352/27 154/353/27
f 156/354/12 158/355/12 155/356/12 153/357/12
f 157/358/1 159/359/1 158/360/1 156/361/1
f 159/362/3 160/346/3 155/349/3 158/363/3
f 154/364/2 160/365/2 159/366/2 157/367/2
f 184/368/40 162/369/40 161/370/41 163/371/41
f 168/372/13 166/373/13 164/374/13 161/375/13 162/376/13 182/377/13 180/378/13 179/379/13 178/380/13 175/381/13 171/382/13 170/383/13
f 164/384/42 165/385/42 163/371/41 161/370/41
f 165/385/42 164/384/42 166/386/43 167/387/43
f 167/388/44 166/96/44 168/389/45 169/390/45
f 170/391/46 172/392/46 169/390/45 168/389/45
f 171/393/47 173/394/47 172/392/46 170/391/46
f 165/395/3 167/396/3 169/397/3 172/398/3 173/399/3 174/400/3 176/401/3 177/402/3 181/403/3 183/404/3 184/405/3 163/406/3
f 175/407/48 174/408/48 173/409/49 171/410/49
f 178/411/50 176/412/50 174/408/48 175/407/48
f 176/412/50 178/411/50 179/413/51 177/414/51
f 177/415/52 179/416/52 180/417/53 181/418/53
f 182/419/54 183/420/54 181/418/53 180/417/53
f 183/420/54 182/419/54 162/421/55 184/422/55
f 186/423/13 189/424/13 188/425/13 185/426/13
f 185/427/27 187/428/27 192/429/27 186/430/27
f 188/431/12 190/354/12 187/357/12 185/432/12
f 189/433/1 191/434/1 190/435/1 188/429/1
f 191/436/3 192/437/3 187/438/3 190/439/3
f 186/440/2 192/441/2 191/354/2 189/431/2
f 193/102/3 194/101/3 196/61/3 195/62/3
f 21/98/16 22/97/30 193/97/3 195/98/3
f 24/100/30 23/99/16 196/99/3 194/100/3
f 22/102/30 24/101/30 194/101/3 193/102/3
s 0
f 197/442/27 198/443/27 200/444/27 199/445/27
f 199/445/2 200/444/2 204/446/2 203/447/2
f 203/447/1 204/446/1 202/448/1 201/449/1
f 201/449/12 202/448/12 198/450/12 197/451/12
f 199/452/13 203/447/13 201/449/13 197/453/13
