# Blender 4.2.0
# www.blender.org
mtllib drawer2.mtl
o Cube
v 1.227366 7.854287 -3.506413
v 1.227366 0.900094 -3.506413
v 1.227366 7.854287 3.506413
v 1.227366 0.900094 3.506413
v -1.227366 7.854287 -3.506413
v -1.227366 0.900094 -3.506413
v -1.227366 7.854287 3.506413
v -1.227366 0.900094 3.506413
v 1.332891 8.037163 -3.807884
v 1.332891 8.037163 3.807884
v -1.332891 8.037163 -3.807884
v -1.332891 8.037163 3.807884
v 1.355166 8.168760 -3.871521
v 1.355166 8.168760 3.871521
v -1.355166 8.168760 -3.871521
v -1.355166 8.168760 3.871521
v 1.355166 8.283297 -3.871521
v 1.355166 8.283297 3.871521
v -1.355166 8.283297 -3.871521
v -1.355166 8.283297 3.871521
v 1.299039 7.945725 -3.711174
v -1.299039 7.945725 -3.711174
v -1.299039 7.945725 3.711174
v 1.299039 7.945725 3.711174
v 1.424112 7.716558 3.327740
v 1.424112 8.087237 0.069133
v 1.424112 0.932141 3.327739
v 1.424112 0.931960 0.069132
v 1.199365 7.716558 3.327740
v 1.199365 8.089699 0.069133
v 1.199365 0.932141 3.327739
v 1.199365 0.931966 0.069132
v 1.424112 7.212137 2.761271
v 1.424112 7.475931 0.635601
v 1.424112 1.442748 2.761271
v 1.424112 1.463028 0.635601
v 1.579576 7.103952 2.621527
v 1.579576 7.327533 0.775345
v 1.579576 1.556046 2.621527
v 1.579576 1.577017 0.775345
v 1.411386 6.894210 2.458927
v 1.411386 7.065397 0.937945
v 1.411386 1.771300 2.458927
v 1.411386 1.792924 0.937944
v -1.305099 0.608609 -3.728487
v -1.305099 0.608609 3.728487
v 1.305099 0.608609 -3.728487
v 1.305099 0.608609 3.728487
v -1.305099 0.042896 -3.728487
v -1.305099 0.042896 3.728487
v 1.305099 0.042896 -3.728487
v 1.305099 0.042896 3.728487
v 1.424112 8.087559 -0.042233
v 1.424112 7.716558 -3.300839
v 1.424112 0.931962 -0.042233
v 1.424112 0.932141 -3.300840
v 1.199365 8.090027 -0.042233
v 1.199365 7.716558 -3.300839
v 1.199365 0.931968 -0.042233
v 1.199365 0.932141 -3.300840
v 1.424112 7.478468 -0.608701
v 1.424112 7.213568 -2.734372
v 1.424112 1.463303 -0.608701
v 1.424112 1.442707 -2.734372
v 1.579576 7.330299 -0.748445
v 1.579576 7.105716 -2.594628
v 1.579576 1.577369 -0.748445
v 1.579576 1.556059 -2.594628
v 1.411386 7.068224 -0.911045
v 1.411386 6.896163 -2.432028
v 1.411386 1.793385 -0.911045
v 1.411386 1.771394 -2.432028
v -1.227366 0.899034 -2.337609
v -1.227366 0.898503 -1.168804
v -1.227366 0.898152 0.000000
v -1.227366 0.898503 1.168805
v -1.227366 0.899034 2.337609
v 1.227366 7.916199 -2.337609
v 1.227366 8.117829 -1.168804
v 1.227366 8.237915 0.000000
v 1.227366 8.117829 1.168805
v 1.227366 7.916199 2.337609
v -1.227366 7.916199 2.337609
v -1.227366 8.117829 1.168804
v -1.227366 8.237915 -0.000000
v -1.227366 8.117829 -1.168805
v -1.227366 7.916199 -2.337609
v 1.227366 0.899034 2.337609
v 1.227366 0.898503 1.168804
v 1.227366 0.898152 -0.000000
v 1.227366 0.898503 -1.168805
v 1.227366 0.899034 -2.337609
v 1.332891 8.074780 -2.538589
v 1.332891 8.289702 -1.269295
v 1.332891 8.430930 0.000000
v 1.332891 8.289702 1.269295
v 1.332891 8.074780 2.538589
v -1.332891 8.074780 2.538589
v -1.332891 8.289702 1.269295
v -1.332891 8.430930 0.000000
v -1.332891 8.289702 -1.269295
v -1.332891 8.074780 -2.538589
v 1.355166 8.202215 -2.581014
v 1.355166 8.422001 -1.290507
v 1.355166 8.569823 0.000000
v 1.355166 8.422001 1.290507
v 1.355166 8.202215 2.581014
v -1.355166 8.202215 2.581014
v -1.355166 8.422001 1.290507
v -1.355166 8.569823 -0.000000
v -1.355166 8.422001 -1.290507
v -1.355166 8.202215 -2.581014
v 1.355166 8.317272 -2.581014
v 1.355166 8.540557 -1.290507
v 1.355166 8.690710 0.000000
v 1.355166 8.540557 1.290507
v 1.355166 8.317272 2.581014
v -1.355166 8.317272 2.581014
v -1.355166 8.540557 1.290507
v -1.355166 8.690710 -0.000000
v -1.355166 8.540557 -1.290507
v -1.355166 8.317272 -2.581014
v 1.299039 7.990531 -2.474116
v 1.299039 8.200742 -1.237058
v 1.299039 8.334423 0.000000
v 1.299039 8.200742 1.237058
v 1.299039 7.990531 2.474116
v -1.299039 7.990531 2.474116
v -1.299039 8.200742 1.237058
v -1.299039 8.334423 0.000000
v -1.299039 8.200742 -1.237058
v -1.299039 7.990531 -2.474116
v -1.305099 0.606434 -2.485658
v -1.305099 0.596430 -1.242829
v -1.305099 0.590506 0.000000
v -1.305099 0.596430 1.242829
v -1.305099 0.606434 2.485658
v 1.305099 0.606434 2.485658
v 1.305099 0.596430 1.242829
v 1.305099 0.590506 0.000000
v 1.305099 0.596430 -1.242829
v 1.305099 0.606434 -2.485658
v -1.305099 0.036392 -3.012722
v -1.305099 0.215713 -1.506361
v -1.305099 0.199019 0.000000
v -1.305099 0.215713 1.506361
v -1.305099 0.036392 3.012722
v 1.305099 0.036392 3.012722
v 1.305099 0.215713 1.506361
v 1.305099 0.199019 0.000000
v 1.305099 0.215713 -1.506361
v 1.305099 0.036392 -3.012722
vn -0.0000 -0.8141 -0.5807
vn -0.0000 -0.5711 -0.8209
vn -0.0000 -0.0000 1.0000
vn -0.9918 0.1281 0.0004
vn -1.0000 -0.0000 -0.0000
vn -0.9885 0.1513 0.0002
vn -0.9953 0.0969 0.0001
vn -0.9916 0.1290 0.0003
vn 0.9918 0.1281 -0.0004
vn 1.0000 -0.0000 -0.0000
vn 0.9885 0.1513 -0.0002
vn -0.0000 -0.0000 -1.0000
vn -0.0000 -0.8141 0.5807
vn -0.0000 -0.5711 0.8209
vn -0.8713 -0.4887 -0.0443
vn -0.9143 -0.4049 -0.0147
vn -0.9751 -0.2217 -0.0067
vn -0.9653 -0.2600 -0.0227
vn 0.8713 -0.4887 0.0443
vn 0.9143 -0.4049 0.0147
vn 0.9751 -0.2217 0.0067
vn 0.9653 -0.2600 0.0227
vn -0.0000 -0.2120 -0.9773
vn 0.9974 -0.0718 0.0020
vn 0.9962 -0.0867 0.0076
vn -0.9974 -0.0718 -0.0020
vn -0.9962 -0.0867 -0.0076
vn -0.0000 -0.2120 0.9773
vn 0.7949 -0.6008 0.0851
vn 0.7835 -0.6208 0.0275
vn -0.7949 -0.6008 -0.0851
vn -0.7835 -0.6208 -0.0275
vn -0.0000 -0.9131 0.4078
vn -0.0000 -0.9131 -0.4078
vn -0.0000 -1.0000 0.0001
vn 0.0054 0.9935 0.1134
vn 0.6685 -0.0000 -0.7437
vn 0.5901 -0.8073 -0.0084
vn 0.6685 -0.0000 0.7437
vn 0.6336 0.7679 0.0942
vn 0.6951 -0.0000 0.7190
vn 0.7884 0.6151 0.0078
vn 0.6951 -0.0000 -0.7190
vn 0.8124 -0.5791 -0.0679
vn 0.9953 0.0969 -0.0001
vn 0.9916 0.1290 -0.0003
vn -0.0000 0.6060 -0.7954
vn -0.0000 0.6060 0.7954
vn -0.0000 -0.9985 -0.0547
vn -0.0000 -1.0000 0.0091
vn -0.0000 -1.0000 -0.0001
vn 0.0055 0.9935 -0.1135
vn 0.5903 -0.8071 0.0085
vn 0.6328 0.7685 -0.0947
vn 0.7885 0.6149 -0.0079
vn 0.8122 -0.5793 0.0682
vn -0.0000 0.9951 0.0987
vn -0.0000 0.9997 0.0263
vn -0.0000 0.9997 -0.0263
vn -0.0000 0.9951 -0.0987
vn -0.0000 0.9897 -0.1431
vn -0.0000 1.0000 -0.0000
vn -0.0000 0.9897 0.1431
vn 0.9953 0.0969 0.0001
vn 0.9916 0.1290 0.0003
vn 0.9920 0.1260 0.0005
vn 0.9923 0.1241 -0.0000
vn 0.9920 0.1260 -0.0005
vn -0.0000 -1.0000 -0.0091
vn -0.0000 -0.9985 0.0547
vn -0.0000 -0.9986 0.0537
vn -0.0000 -1.0000 -0.0000
vn -0.0000 -0.9986 -0.0537
vn 0.9885 0.1513 0.0002
vn 0.9918 0.1281 0.0004
vn 0.9921 0.1257 0.0004
vn 0.9922 0.1245 -0.0000
vn 0.9921 0.1257 -0.0004
vn -0.9953 0.0969 -0.0001
vn -0.9916 0.1290 -0.0003
vn -0.9920 0.1260 -0.0005
vn -0.9923 0.1241 -0.0000
vn -0.9920 0.1260 0.0005
vn -0.7835 -0.6208 0.0275
vn -0.7949 -0.6008 0.0851
vn -0.8713 -0.4887 0.0443
vn -0.9143 -0.4049 0.0147
vn -0.7938 -0.6032 0.0776
vn -0.8794 -0.4712 0.0675
vn -0.7930 -0.6092 -0.0000
vn -0.8823 -0.4707 -0.0000
vn -0.7938 -0.6032 -0.0776
vn -0.8794 -0.4712 -0.0675
vn 0.7835 -0.6208 -0.0275
vn 0.7949 -0.6008 -0.0851
vn 0.8713 -0.4887 -0.0443
vn 0.9143 -0.4049 -0.0147
vn 0.7938 -0.6032 -0.0776
vn 0.8794 -0.4712 -0.0675
vn 0.7930 -0.6092 -0.0000
vn 0.8823 -0.4707 -0.0000
vn 0.7938 -0.6032 0.0776
vn 0.8794 -0.4712 0.0675
vn -0.9974 -0.0718 0.0020
vn -0.9962 -0.0867 0.0076
vn -0.9968 -0.0797 0.0113
vn -0.9972 -0.0748 -0.0000
vn -0.9968 -0.0797 -0.0113
vn 0.9974 -0.0718 -0.0020
vn 0.9962 -0.0867 -0.0076
vn 0.9968 -0.0797 -0.0113
vn 0.9972 -0.0748 -0.0000
vn 0.9968 -0.0797 0.0113
vn -0.9751 -0.2217 0.0067
vn -0.9653 -0.2600 0.0227
vn -0.9680 -0.2484 0.0354
vn -0.9698 -0.2440 -0.0000
vn -0.9680 -0.2484 -0.0354
vn 0.9751 -0.2217 -0.0067
vn 0.9653 -0.2600 -0.0227
vn 0.9680 -0.2484 -0.0354
vn 0.9698 -0.2440 -0.0000
vn 0.9680 -0.2484 0.0354
vn -0.9885 0.1513 -0.0002
vn -0.9918 0.1281 -0.0004
vn -0.9921 0.1257 -0.0004
vn -0.9922 0.1245 -0.0000
vn -0.9921 0.1257 0.0004
vt 0.965103 0.002648
vt 0.965103 0.125238
vt 0.959112 0.126836
vt 0.959112 0.001051
vt 0.528818 0.948892
vt 0.528818 0.526188
vt 0.644644 0.526188
vt 0.644644 0.948892
vt 0.850374 0.472947
vt 0.850375 0.047577
vt 0.921612 0.051330
vt 0.921612 0.472883
vt 0.935147 0.490171
vt 0.859398 0.490303
vt 0.378442 0.474029
vt 0.378442 0.047524
vt 0.449680 0.051287
vt 0.449680 0.473965
vt 0.651980 0.948892
vt 0.651980 0.526188
vt 0.767806 0.526188
vt 0.767806 0.948892
vt 0.965103 0.130535
vt 0.965103 0.253125
vt 0.959112 0.254723
vt 0.959112 0.128938
vt 0.557104 0.042719
vt 0.481706 0.045435
vt 0.475811 0.039726
vt 0.553174 0.037446
vt 0.085171 0.042754
vt 0.009773 0.045477
vt 0.003879 0.039801
vt 0.081241 0.037515
vt 0.950827 0.127887
vt 0.950827 0.000000
vt 0.000000 0.031724
vt 0.078655 0.029691
vt 0.471933 0.031640
vt 0.550588 0.029612
vt 0.950827 0.255774
vt 0.950827 0.127887
vt 0.000000 0.024763
vt 0.078655 0.022698
vt 0.471933 0.024697
vt 0.550588 0.022637
vt 0.943865 0.255774
vt 0.943865 0.127887
vt 0.943865 0.000000
vt 0.093491 0.047524
vt 0.022253 0.051287
vt 0.565423 0.047577
vt 0.494186 0.051330
vt 0.977584 0.201992
vt 0.977584 0.317818
vt 0.965104 0.321200
vt 0.965104 0.198610
vt 0.965103 0.440408
vt 0.965103 0.324582
vt 0.977583 0.321200
vt 0.977583 0.443790
vt 0.926450 0.526188
vt 0.937055 0.526188
vt 0.937055 0.938572
vt 0.926450 0.938572
vt 0.943865 0.851607
vt 0.943865 0.652997
vt 0.954470 0.652997
vt 0.954470 0.851607
vt 0.905241 0.526188
vt 0.915845 0.526338
vt 0.915845 0.961264
vt 0.905241 0.961264
vt 0.943865 0.652997
vt 0.943866 0.454388
vt 0.954470 0.454386
vt 0.954470 0.652995
vt 0.397219 0.961077
vt 0.198610 0.961088
vt 0.233135 0.928810
vt 0.362694 0.930042
vt 0.198610 0.526188
vt 0.397219 0.548718
vt 0.362693 0.579377
vt 0.233135 0.563344
vt 0.241653 0.571817
vt 0.241653 0.921336
vt 0.354176 0.922610
vt 0.354176 0.585407
vt 0.965103 0.573348
vt 0.965103 0.443790
vt 0.972453 0.452306
vt 0.972453 0.564829
vt 0.251563 0.588341
vt 0.251563 0.908803
vt 0.344266 0.910118
vt 0.344266 0.598745
vt 0.935147 0.524464
vt 0.891522 0.524858
vt 0.463215 0.491409
vt 0.387465 0.491541
vt 0.771474 0.965614
vt 0.648312 0.965614
vt 0.648312 0.965614
vt 0.525150 0.965614
vt 0.894636 0.569813
vt 0.771474 0.569813
vt 0.771474 0.526188
vt 0.894636 0.526188
vt 0.463215 0.525793
vt 0.419589 0.526188
vt 0.771474 1.000000
vt 0.648312 1.000000
vt 0.648312 1.000000
vt 0.525150 1.000000
vt 0.894636 0.526338
vt 0.905241 0.526188
vt 0.905241 0.961284
vt 0.894636 0.961284
vt 0.965103 0.198610
vt 0.965103 0.000000
vt 0.975708 0.000000
vt 0.975708 0.198610
vt 0.915845 0.526188
vt 0.926450 0.526188
vt 0.926450 0.938572
vt 0.915845 0.938572
vt 0.943866 0.454384
vt 0.943865 0.255774
vt 0.954470 0.255776
vt 0.198610 0.961108
vt 0.000000 0.961097
vt 0.034526 0.930064
vt 0.164084 0.928813
vt 0.000000 0.548738
vt 0.198610 0.526188
vt 0.164084 0.563209
vt 0.034526 0.579310
vt 0.043043 0.585319
vt 0.043043 0.922629
vt 0.155567 0.921334
vt 0.155567 0.571669
vt 0.965103 0.702906
vt 0.965103 0.573348
vt 0.972453 0.581867
vt 0.972453 0.694390
vt 0.052953 0.598646
vt 0.052953 0.910131
vt 0.145656 0.908795
vt 0.145656 0.588188
vt 0.397260 0.604844
vt 0.397263 0.526188
vt 0.525150 0.526188
vt 0.525146 0.604844
vt 0.397263 0.998121
vt 0.397260 0.919465
vt 0.525146 0.919465
vt 0.525150 0.998121
vt 0.397236 0.840810
vt 0.525122 0.840810
vt 0.397219 0.762154
vt 0.525106 0.762154
vt 0.397236 0.683499
vt 0.525122 0.683499
vt 0.008718 0.491409
vt 0.084467 0.491541
vt 0.052343 0.526188
vt 0.008718 0.525793
vt 0.160217 0.492149
vt 0.144155 0.515289
vt 0.235966 0.492509
vt 0.235966 0.516304
vt 0.311716 0.492149
vt 0.327778 0.515289
vt 0.894636 0.980685
vt 0.771474 0.980685
vt 0.771474 0.937060
vt 0.894636 0.937060
vt 0.771474 0.845248
vt 0.894636 0.845248
vt 0.771474 0.753437
vt 0.894636 0.753437
vt 0.771474 0.661625
vt 0.894636 0.661625
vt 0.022253 0.473965
vt 0.093491 0.474029
vt 0.164729 0.474062
vt 0.235966 0.474083
vt 0.307204 0.474062
vt 0.480650 0.490171
vt 0.556400 0.490303
vt 0.524276 0.524858
vt 0.480650 0.524464
vt 0.632149 0.490909
vt 0.616087 0.513988
vt 0.707899 0.491268
vt 0.707899 0.515000
vt 0.783648 0.490909
vt 0.799711 0.513988
vt 0.858695 0.042719
vt 0.934092 0.045435
vt 0.779137 0.035355
vt 0.783297 0.029977
vt 0.707899 0.028075
vt 0.707899 0.021873
vt 0.636661 0.035355
vt 0.632501 0.029977
vt 0.386762 0.042754
vt 0.462160 0.045477
vt 0.307204 0.035268
vt 0.311364 0.029977
vt 0.235966 0.027970
vt 0.235966 0.021852
vt 0.164729 0.035268
vt 0.160569 0.029977
vt 0.943865 0.031640
vt 0.865210 0.029612
vt 0.865210 0.022637
vt 0.943865 0.024697
vt 0.786554 0.016289
vt 0.786554 0.009102
vt 0.707899 0.007328
vt 0.707899 0.000000
vt 0.629244 0.016289
vt 0.629244 0.009102
vt 0.471933 0.031724
vt 0.393277 0.029691
vt 0.393277 0.022698
vt 0.471933 0.024763
vt 0.314622 0.016332
vt 0.314622 0.009126
vt 0.235966 0.007348
vt 0.235966 -0.000000
vt 0.157311 0.016332
vt 0.157311 0.009126
vt 0.939987 0.039726
vt 0.862624 0.037446
vt 0.785262 0.024418
vt 0.707899 0.015857
vt 0.630536 0.024418
vt 0.468054 0.039801
vt 0.390691 0.037515
vt 0.313329 0.024451
vt 0.235966 0.015868
vt 0.158604 0.024452
vt 0.494186 0.472883
vt 0.565423 0.472947
vt 0.636661 0.472980
vt 0.707899 0.473001
vt 0.779137 0.472980
s 1
usemtl Material.001
f 21/1/1 22/2/1 11/3/2 9/4/2
f 4/5/3 3/6/3 7/7/3 8/8/3
f 73/9/4 87/10/5 5/11/5 6/12/6
f 73/9/4 6/12/6 45/13/7 133/14/8
f 88/15/9 82/16/10 3/17/10 4/18/11
f 6/19/12 5/20/12 1/21/12 2/22/12
f 23/23/13 24/24/13 10/25/14 12/26/14
f 128/27/15 23/28/16 12/29/17 98/30/18
f 123/31/19 21/32/20 9/33/21 93/34/22
f 9/4/2 11/3/2 15/35/23 13/36/23
f 93/34/22 9/33/21 13/37/24 103/38/25
f 98/30/18 12/29/17 16/39/26 108/40/27
f 12/26/14 10/25/14 14/41/28 16/42/28
f 103/38/25 13/37/24 17/43/10 113/44/10
f 108/40/27 16/39/26 20/45/5 118/46/5
f 16/42/28 14/41/28 18/47/3 20/48/3
f 13/36/23 15/35/23 19/48/12 17/49/12
f 78/50/29 1/51/30 21/32/20 123/31/19
f 83/52/31 7/53/32 23/28/16 128/27/15
f 7/54/33 3/55/33 24/56/13 23/57/13
f 1/58/34 5/59/34 22/60/1 21/61/1
f 25/62/3 29/63/3 31/64/3 27/65/3
f 28/66/35 27/67/35 31/68/35 32/69/35
f 30/70/12 26/71/12 28/72/12 32/73/12
f 30/74/36 29/75/36 25/76/36 26/77/36
f 27/78/10 28/79/10 36/80/10 35/81/10
f 26/82/10 25/83/10 33/84/10 34/85/10
f 28/79/10 26/82/10 34/85/10 36/80/10
f 25/83/10 27/78/10 35/81/10 33/84/10
f 36/80/37 34/85/37 38/86/37 40/87/37
f 35/81/38 36/80/38 40/87/38 39/88/38
f 33/84/39 35/81/39 39/88/39 37/89/39
f 34/90/40 33/91/40 37/92/40 38/93/40
f 40/87/41 38/86/41 42/94/41 44/95/41
f 39/88/42 40/87/42 44/95/42 43/96/42
f 37/89/43 39/88/43 43/96/43 41/97/43
f 38/86/44 37/89/44 41/97/44 42/94/44
f 43/96/10 44/95/10 42/94/10
f 43/96/10 42/94/10 41/97/10
f 133/14/8 45/13/7 49/98/5 143/99/5
f 88/15/9 4/18/11 48/100/45 138/101/46
f 6/19/47 2/22/47 47/102/47 45/103/47
f 4/5/48 8/8/48 46/104/48 48/105/48
f 147/106/49 148/107/49 52/108/50 50/109/50
f 138/101/46 48/100/45 52/110/10 148/111/10
f 45/103/12 47/102/12 51/112/12 49/113/12
f 48/105/3 46/104/3 50/114/3 52/115/3
f 53/116/3 57/117/3 59/118/3 55/119/3
f 56/120/51 55/121/51 59/122/51 60/123/51
f 58/124/12 54/125/12 56/126/12 60/127/12
f 58/128/52 57/129/52 53/130/52 54/76/52
f 55/131/10 56/132/10 64/133/10 63/134/10
f 54/135/10 53/136/10 61/137/10 62/138/10
f 56/132/10 54/135/10 62/138/10 64/133/10
f 53/136/10 55/131/10 63/134/10 61/137/10
f 64/133/37 62/138/37 66/139/37 68/140/37
f 63/134/53 64/133/53 68/140/53 67/141/53
f 61/137/39 63/134/39 67/141/39 65/142/39
f 62/143/54 61/144/54 65/145/54 66/146/54
f 68/140/41 66/139/41 70/147/41 72/148/41
f 67/141/55 68/140/55 72/148/55 71/149/55
f 65/142/43 67/141/43 71/149/43 69/150/43
f 66/139/56 65/142/56 69/150/56 70/147/56
f 71/149/10 72/148/10 70/147/10
f 71/149/10 70/147/10 69/150/10
f 118/151/57 20/152/58 18/153/58 117/154/57
f 19/155/59 122/156/60 113/157/60 17/158/59
f 122/156/60 121/159/61 114/160/61 113/157/60
f 121/159/61 120/161/62 115/162/62 114/160/61
f 120/161/62 119/163/63 116/164/63 115/162/62
f 119/163/63 118/151/57 117/154/57 116/164/63
f 47/165/64 142/166/65 152/167/10 51/168/10
f 142/166/65 141/169/66 151/170/10 152/167/10
f 141/169/66 140/171/67 150/172/10 151/170/10
f 140/171/67 139/173/68 149/174/10 150/172/10
f 139/173/68 138/101/46 148/111/10 149/174/10
f 49/175/69 51/176/69 152/177/70 143/178/70
f 143/178/70 152/177/70 151/179/71 144/180/71
f 144/180/71 151/179/71 150/181/72 145/182/72
f 145/182/72 150/181/72 149/183/73 146/184/73
f 146/184/73 149/183/73 148/107/49 147/106/49
f 2/185/74 92/186/75 142/166/65 47/165/64
f 92/186/75 91/187/76 141/169/66 142/166/65
f 91/187/76 90/188/77 140/171/67 141/169/66
f 90/188/77 89/189/78 139/173/68 140/171/67
f 89/189/78 88/15/9 138/101/46 139/173/68
f 46/190/79 137/191/80 147/192/5 50/193/5
f 137/191/80 136/194/81 146/195/5 147/192/5
f 136/194/81 135/196/82 145/197/5 146/195/5
f 135/196/82 134/198/83 144/199/5 145/197/5
f 134/198/83 133/14/8 143/99/5 144/199/5
f 5/11/84 87/10/85 132/200/86 22/201/87
f 87/10/85 86/202/88 131/203/89 132/200/86
f 86/202/88 85/204/90 130/205/91 131/203/89
f 85/204/90 84/206/92 129/207/93 130/205/91
f 84/206/92 83/52/31 128/27/15 129/207/93
f 3/17/94 82/16/95 127/208/96 24/209/97
f 82/16/95 81/210/98 126/211/99 127/208/96
f 81/210/98 80/212/100 125/213/101 126/211/99
f 80/212/100 79/214/102 124/215/103 125/213/101
f 79/214/102 78/50/29 123/31/19 124/215/103
f 15/216/104 112/217/105 122/218/5 19/219/5
f 112/217/105 111/220/106 121/221/5 122/218/5
f 111/220/106 110/222/107 120/223/5 121/221/5
f 110/222/107 109/224/108 119/225/5 120/223/5
f 109/224/108 108/40/27 118/46/5 119/225/5
f 14/226/109 107/227/110 117/228/10 18/229/10
f 107/227/110 106/230/111 116/231/10 117/228/10
f 106/230/111 105/232/112 115/233/10 116/231/10
f 105/232/112 104/234/113 114/235/10 115/233/10
f 104/234/113 103/38/25 113/44/10 114/235/10
f 11/236/114 102/237/115 112/217/105 15/216/104
f 102/237/115 101/238/116 111/220/106 112/217/105
f 101/238/116 100/239/117 110/222/107 111/220/106
f 100/239/117 99/240/118 109/224/108 110/222/107
f 99/240/118 98/30/18 108/40/27 109/224/108
f 10/241/119 97/242/120 107/227/110 14/226/109
f 97/242/120 96/243/121 106/230/111 107/227/110
f 96/243/121 95/244/122 105/232/112 106/230/111
f 95/244/122 94/245/123 104/234/113 105/232/112
f 94/245/123 93/34/22 103/38/25 104/234/113
f 24/209/97 127/208/96 97/242/120 10/241/119
f 127/208/96 126/211/99 96/243/121 97/242/120
f 126/211/99 125/213/101 95/244/122 96/243/121
f 125/213/101 124/215/103 94/245/123 95/244/122
f 124/215/103 123/31/19 93/34/22 94/245/123
f 22/201/87 132/200/86 102/237/115 11/236/114
f 132/200/86 131/203/89 101/238/116 102/237/115
f 131/203/89 130/205/91 100/239/117 101/238/116
f 130/205/91 129/207/93 99/240/118 100/239/117
f 129/207/93 128/27/15 98/30/18 99/240/118
f 2/185/74 1/51/10 78/50/10 92/186/75
f 92/186/75 78/50/10 79/214/10 91/187/76
f 91/187/76 79/214/10 80/212/10 90/188/77
f 90/188/77 80/212/10 81/210/10 89/189/78
f 89/189/78 81/210/10 82/16/10 88/15/9
f 8/246/124 77/247/125 137/191/80 46/190/79
f 77/247/125 76/248/126 136/194/81 137/191/80
f 76/248/126 75/249/127 135/196/82 136/194/81
f 75/249/127 74/250/128 134/198/83 135/196/82
f 74/250/128 73/9/4 133/14/8 134/198/83
f 8/246/124 7/53/5 83/52/5 77/247/125
f 77/247/125 83/52/5 84/206/5 76/248/126
f 76/248/126 84/206/5 85/204/5 75/249/127
f 75/249/127 85/204/5 86/202/5 74/250/128
f 74/250/128 86/202/5 87/10/5 73/9/4
