# Blender 4.2.0
# www.blender.org
mtllib pic1.mtl
o Plane
v -0.555446 0.000000 0.721332
v 0.555446 0.000000 0.721332
v -0.555446 0.000000 -0.721332
v 0.555446 0.000000 -0.721332
vn -0.0000 1.0000 -0.0000
vt 0.000000 0.000000
vt 1.000000 0.000000
vt 1.000000 1.000000
vt 0.000000 1.000000
s 0
usemtl Material.001
f 1/1/1 2/2/1 4/3/1 3/4/1
o Cube
v -0.660216 -0.030617 0.819386
v -0.660216 0.030617 0.819386
v -0.660216 -0.030617 -0.819386
v -0.660216 0.030617 -0.819386
v 0.660216 -0.030617 0.819386
v 0.660216 0.030617 0.819386
v 0.660216 -0.030617 -0.819386
v 0.660216 0.030617 -0.819386
v -0.596441 0.005778 0.766520
v -0.596441 0.005778 -0.766520
v 0.596441 -0.000746 0.766520
v 0.596441 -0.000746 -0.766520
v -0.538683 0.005778 0.707833
v -0.538683 0.005778 -0.707833
v 0.538683 0.005778 0.707833
v 0.538683 0.005778 -0.707833
v -0.629550 0.030617 0.793966
v -0.596441 0.015330 0.766520
v -0.596441 0.015330 -0.766520
v -0.629550 0.030617 -0.793966
v 0.596441 0.015330 0.766520
v 0.629550 0.030617 0.793966
v 0.596441 0.015330 -0.766520
v 0.629550 0.030617 -0.793966
vn -1.0000 -0.0000 -0.0000
vn -0.0000 -0.0000 -1.0000
vn 1.0000 -0.0000 -0.0000
vn -0.0000 -0.0000 1.0000
vn -0.0000 -1.0000 -0.0000
vn -0.0000 1.0000 -0.0000
vn 0.0029 0.9985 0.0555
vn 0.0029 0.9985 -0.0555
vn 0.1122 0.9937 -0.0000
vn 0.4192 0.9079 -0.0000
vn -0.0000 0.8736 0.4866
vn -0.4192 0.9079 -0.0000
vn -0.0000 0.8736 -0.4866
vt 0.851888 0.516667
vt 0.832582 0.516667
vt 0.832582 0.000000
vt 0.851888 0.000000
vt 0.890499 0.416302
vt 0.871193 0.416302
vt 0.871193 -0.000000
vt 0.890499 -0.000000
vt 0.871193 0.516667
vt 0.851888 0.516667
vt 0.851888 0.000000
vt 0.871193 0.000000
vt 0.890499 0.832604
vt 0.871193 0.832604
vt 0.871193 0.416302
vt 0.890499 0.416302
vt 0.416302 0.516667
vt 0.000000 0.516667
vt 0.000000 0.000000
vt 0.416302 0.000000
vt 0.890499 0.483333
vt 0.890499 -0.000000
vt 0.895567 -0.000000
vt 0.895567 0.483333
vt 0.376090 0.892756
vt 0.376090 0.516667
vt 0.381158 0.516667
vt 0.379101 0.892756
vt 0.381158 0.892756
vt 0.381158 0.516667
vt 0.384170 0.516667
vt 0.386226 0.892756
vt 0.832582 0.000000
vt 0.822914 0.508653
vt 0.822914 0.008014
vt 0.416302 0.516667
vt 0.416302 -0.000000
vt 0.425970 0.008014
vt 0.425970 0.508653
vt 0.000000 0.516667
vt 0.376090 0.516667
vt 0.357860 0.535170
vt 0.018209 0.535170
vt 0.376090 1.000000
vt -0.000000 1.000000
vt 0.018209 0.981497
vt 0.357860 0.981497
vt 0.436457 0.016667
vt 0.436457 0.500000
vt 0.812526 0.500000
vt 0.812526 0.016667
vt 0.895567 -0.000000
vt 0.898579 -0.000000
vt 0.898579 0.483333
s 0
f 5/5/2 6/6/2 8/7/2 7/8/2
f 7/9/3 8/10/3 12/11/3 11/12/3
f 11/13/4 12/14/4 10/15/4 9/16/4
f 9/17/5 10/18/5 6/19/5 5/20/5
f 7/21/6 11/22/6 9/23/6 5/24/6
f 25/25/2 27/26/2 16/27/2 15/28/2
f 22/29/3 25/30/3 15/31/3 13/32/3
f 27/33/5 23/34/5 14/35/5 16/36/5
f 10/37/7 12/6/7 28/38/7 26/39/7
f 8/40/7 6/41/7 21/42/7 24/43/7
f 6/41/7 10/37/7 26/39/7 21/42/7
f 12/6/7 8/40/7 24/43/7 28/38/7
f 13/44/8 15/45/8 19/46/8 17/47/8
f 16/48/9 14/49/9 18/50/9 20/51/9
f 15/45/10 16/48/10 20/51/10 19/46/10
f 14/49/7 13/44/7 17/47/7 18/50/7
f 22/52/11 23/53/11 24/43/11 21/42/11
f 23/53/12 27/54/12 28/38/12 24/43/12
f 27/54/13 25/55/13 26/39/13 28/38/13
f 25/55/14 22/52/14 21/42/14 26/39/14
f 23/28/4 22/56/4 13/57/4 14/58/4
