# Blender 4.2.0
# www.blender.org
mtllib pic4.mtl
o Plane
v -0.612703 -0.002241 1.269787
v 0.612703 -0.002241 1.269787
v -0.612703 -0.002241 -1.269787
v 0.612703 -0.002241 -1.269787
vn -0.0000 1.0000 -0.0000
vt 0.000000 0.000000
vt 1.000000 0.000000
vt 1.000000 1.000000
vt 0.000000 1.000000
s 0
usemtl Material.001
f 1/1/1 2/2/1 4/3/1 3/4/1
o Cube
v -0.735978 -0.029716 1.349413
v -0.735978 0.029716 1.349413
v -0.735978 -0.029716 -1.349413
v -0.735978 0.029716 -1.349413
v 0.735978 -0.029716 1.349413
v 0.735978 0.029716 1.349413
v 0.735978 -0.029716 -1.349413
v 0.735978 0.029716 -1.349413
v -0.664885 0.005608 1.311258
v -0.664885 0.005608 -1.311258
v 0.664885 -0.000724 1.311258
v 0.664885 -0.000724 -1.311258
v -0.600499 0.005608 1.210864
v -0.600499 0.005608 -1.210864
v 0.600499 0.005608 1.210864
v 0.600499 0.005608 -1.210864
v -0.701793 0.029716 1.307550
v -0.664885 0.014879 1.262350
v -0.664885 0.014879 -1.262350
v -0.701793 0.029716 -1.307550
v 0.664885 0.014879 1.262350
v 0.701793 0.029716 1.307550
v 0.664885 0.014879 -1.262350
v 0.701793 0.029716 -1.307550
vn -1.0000 -0.0000 -0.0000
vn -0.0000 -0.0000 -1.0000
vn 1.0000 -0.0000 -0.0000
vn -0.0000 -0.0000 1.0000
vn -0.0000 -1.0000 -0.0000
vn -0.0023 -0.9692 -0.2464
vn -0.0023 -0.9692 0.2464
vn -0.0000 1.0000 -0.0000
vn 0.0025 0.9995 0.0315
vn 0.0025 0.9995 -0.0315
vn 0.0979 0.9952 -0.0000
vn 0.3730 0.9278 -0.0000
vn -0.0000 0.9501 0.3119
vn -0.3730 0.9278 -0.0000
vn -0.0000 0.9501 -0.3119
vt 0.980915 0.610958
vt 0.967461 0.610958
vt 0.967461 -0.000000
vt 0.980915 -0.000000
vt 0.679882 0.926904
vt 0.666428 0.926904
vt 0.666428 0.593683
vt 0.679882 0.593683
vt 0.994369 0.610958
vt 0.980915 0.610958
vt 0.980915 -0.000000
vt 0.994369 -0.000000
vt 0.693336 0.926904
vt 0.679882 0.926904
vt 0.679882 0.593683
vt 0.693336 0.593683
vt 0.000000 0.000000
vt 0.333220 0.000000
vt 0.333220 0.610958
vt 0.000000 0.610958
vt 0.994369 0.582612
vt 0.994369 0.011072
vt 0.997901 -0.000000
vt 0.997901 0.593683
vt 0.704407 0.593683
vt 0.704407 0.894715
vt 0.693336 0.894721
vt 0.693336 0.593687
vt 0.704407 0.894715
vt 0.704407 0.593683
vt 0.715479 0.593687
vt 0.715479 0.894721
vt 0.666428 0.000000
vt 0.666428 0.610958
vt 0.658689 0.601481
vt 0.658689 0.009477
vt 0.333220 0.610958
vt 0.333220 -0.000000
vt 0.340958 0.009477
vt 0.340958 0.601481
vt 0.666428 -0.000000
vt 0.967461 0.000000
vt 0.952873 0.022727
vt 0.681003 0.022727
vt 0.967461 0.593683
vt 0.681003 0.570956
vt 0.952873 0.570956
vt 0.349343 0.019709
vt 0.349343 0.591249
vt 0.650364 0.591249
vt 0.650364 0.019709
vt 0.997901 0.582612
vt 0.997901 0.011072
vt 1.000000 -0.000000
vt 1.000000 0.593683
s 0
usemtl Material.002
f 5/5/2 6/6/2 8/7/2 7/8/2
f 7/9/3 8/10/3 12/11/3 11/12/3
f 11/13/4 12/14/4 10/15/4 9/16/4
f 9/17/5 10/18/5 6/19/5 5/20/5
f 7/21/6 11/22/6 9/23/6 5/24/6
f 25/25/2 27/26/2 16/27/2 15/28/2
f 22/29/7 25/30/7 15/31/7 13/32/7
f 27/33/8 23/34/8 14/35/8 16/36/8
f 10/37/9 12/38/9 28/39/9 26/40/9
f 8/41/9 6/42/9 21/43/9 24/44/9
f 6/42/9 10/37/9 26/40/9 21/43/9
f 12/38/9 8/41/9 24/44/9 28/39/9
f 13/45/10 15/46/10 19/47/10 17/48/10
f 16/49/11 14/11/11 18/50/11 20/51/11
f 15/46/12 16/49/12 20/51/12 19/47/12
f 14/11/9 13/45/9 17/48/9 18/50/9
f 22/52/13 23/53/13 24/44/13 21/43/13
f 23/53/14 27/54/14 28/39/14 24/44/14
f 27/54/15 25/55/15 26/40/15 28/39/15
f 25/55/16 22/52/16 21/43/16 26/40/16
f 23/56/4 22/57/4 13/58/4 14/59/4
