# Blender 4.2.0
# www.blender.org
mtllib drawer.mtl
o Cube
v 0.950187 3.447780 -3.506413
v 0.950187 -3.506413 -3.506413
v 0.950187 3.447780 3.506413
v 0.950187 -3.506413 3.506413
v -0.950187 3.447780 -3.506413
v -0.950187 -3.506413 -3.506413
v -0.950187 3.447780 3.506413
v -0.950187 -3.506413 3.506413
v 1.031881 3.630656 -3.807884
v 1.031881 3.630656 3.807884
v -1.031881 3.630656 -3.807884
v -1.031881 3.630656 3.807884
v 1.049126 3.762253 -3.871521
v 1.049126 3.762253 3.871521
v -1.049126 3.762253 -3.871521
v -1.049126 3.762253 3.871521
v 1.049126 3.876790 -3.871521
v 1.049126 3.876790 3.871521
v -1.049126 3.876790 -3.871521
v -1.049126 3.876790 3.871521
v 1.005674 3.539218 -3.711174
v -1.005674 3.539218 -3.711174
v -1.005674 3.539218 3.711174
v 1.005674 3.539218 3.711174
v 1.140078 1.081142 -3.329263
v 1.140078 -1.081142 -3.329263
v 1.140078 1.081142 3.329263
v 1.140078 -1.081142 3.329263
v 0.977322 1.081142 -3.329263
v 0.977322 -1.081142 -3.329263
v 0.977322 1.081142 3.329263
v 0.977322 -1.081142 3.329263
v 1.140078 0.705256 -2.826882
v 1.140078 -0.705256 -2.826882
v 1.140078 0.705256 2.826882
v 1.140078 -0.705256 2.826882
v 1.252661 0.612527 -2.715467
v 1.252661 -0.612527 -2.715467
v 1.252661 0.612527 2.715467
v 1.252661 -0.612527 2.715467
v 1.130862 0.504632 -2.504201
v 1.130862 -0.504632 -2.504201
v 1.130862 0.504632 2.504201
v 1.130862 -0.504632 2.504201
v 1.140078 3.290496 -3.329263
v 1.140078 1.128212 -3.329263
v 1.140078 3.290496 3.329263
v 1.140078 1.128212 3.329263
v 0.977322 3.290496 -3.329263
v 0.977322 1.128212 -3.329263
v 0.977322 3.290496 3.329263
v 0.977322 1.128212 3.329263
v 1.140078 2.914610 -2.826882
v 1.140078 1.504098 -2.826882
v 1.140078 2.914610 2.826882
v 1.140078 1.504098 2.826882
v 1.252661 2.821881 -2.715467
v 1.252661 1.596827 -2.715467
v 1.252661 2.821881 2.715467
v 1.252661 1.596827 2.715467
v 1.130862 2.713986 -2.504201
v 1.130862 1.704722 -2.504201
v 1.130862 2.713986 2.504201
v 1.130862 1.704722 2.504201
v 1.140078 -1.171506 -3.329263
v 1.140078 -3.333790 -3.329263
v 1.140078 -1.171506 3.329263
v 1.140078 -3.333790 3.329263
v 0.977322 -1.171506 -3.329263
v 0.977322 -3.333790 -3.329263
v 0.977322 -1.171506 3.329263
v 0.977322 -3.333790 3.329263
v 1.140078 -1.547392 -2.826882
v 1.140078 -2.957904 -2.826882
v 1.140078 -1.547392 2.826882
v 1.140078 -2.957904 2.826882
v 1.252661 -1.640121 -2.715467
v 1.252661 -2.865175 -2.715467
v 1.252661 -1.640121 2.715467
v 1.252661 -2.865175 2.715467
v 1.130862 -1.748016 -2.504201
v 1.130862 -2.757280 -2.504201
v 1.130862 -1.748016 2.504201
v 1.130862 -2.757280 2.504201
vn -0.0000 -0.8181 -0.5751
vn -0.0000 -0.5755 -0.8178
vn -0.0000 -0.0000 1.0000
vn -1.0000 -0.0000 -0.0000
vn -0.0000 -1.0000 -0.0000
vn 1.0000 -0.0000 -0.0000
vn -0.0000 -0.0000 -1.0000
vn -0.0000 -0.8181 0.5751
vn -0.0000 -0.5755 0.8178
vn -0.9480 -0.3182 -0.0000
vn -0.9853 -0.1708 -0.0000
vn 0.9480 -0.3182 -0.0000
vn 0.9853 -0.1708 -0.0000
vn -0.0000 -0.2146 -0.9767
vn 0.9985 -0.0543 -0.0000
vn -0.9985 -0.0543 -0.0000
vn -0.0000 -0.2146 0.9767
vn -0.0000 1.0000 -0.0000
vn 0.8549 -0.5188 -0.0000
vn -0.8549 -0.5188 -0.0000
vn -0.0000 -0.9131 0.4078
vn -0.0000 -0.9131 -0.4078
vn 0.6358 -0.7719 -0.0000
vn 0.7034 -0.0000 0.7108
vn 0.6358 0.7719 -0.0000
vn 0.7034 -0.0000 -0.7108
vn 0.6631 0.7485 -0.0000
vn 0.8663 -0.0000 -0.4995
vn 0.6631 -0.7485 -0.0000
vn 0.8663 -0.0000 0.4995
vt 0.833817 0.753250
vt 0.833817 0.867875
vt 0.828214 0.869368
vt 0.828214 0.751756
vt 0.705658 0.441269
vt 0.705658 0.836509
vt 0.597357 0.836509
vt 0.597357 0.441269
vt 0.834981 0.420462
vt 0.445793 0.420462
vt 0.445793 0.020807
vt 0.834981 0.020807
vt 0.489057 0.441269
vt 0.597357 0.441269
vt 0.597357 0.840925
vt 0.489057 0.840925
vt 0.420719 0.420462
vt 0.024621 0.420462
vt 0.024621 0.020807
vt 0.420719 0.020807
vt 0.813959 0.441269
vt 0.813959 0.836509
vt 0.705658 0.836509
vt 0.705658 0.441269
vt 0.854839 0.311981
vt 0.854839 0.426606
vt 0.849236 0.428099
vt 0.849236 0.310487
vt 0.440079 0.009138
vt 0.440079 0.432131
vt 0.434680 0.437643
vt 0.434680 0.003627
vt 0.019309 0.009138
vt 0.019309 0.432131
vt 0.014052 0.437643
vt 0.014052 0.003627
vt 0.820468 0.870351
vt 0.820468 0.750774
vt 0.006524 0.441269
vt 0.006524 0.000000
vt 0.427130 0.441269
vt 0.427130 0.000000
vt 0.841490 0.429082
vt 0.841490 0.309504
vt 0.000000 0.441269
vt 0.000000 0.000000
vt 0.420720 0.441269
vt 0.420720 0.000000
vt 0.834980 0.429082
vt 0.834980 0.309504
vt 0.813959 0.870351
vt 0.813959 0.750774
vt 0.000000 0.882539
vt 0.000000 0.441270
vt 0.119578 0.441270
vt 0.119578 0.882539
vt 0.845486 0.862236
vt 0.845486 0.753936
vt 0.857155 0.750774
vt 0.857155 0.865399
vt 0.833817 0.865399
vt 0.833817 0.750774
vt 0.914033 0.000000
vt 0.923308 0.000000
vt 0.923308 0.379464
vt 0.914033 0.379464
vt 0.864114 0.309504
vt 0.864114 0.432397
vt 0.854839 0.432397
vt 0.854839 0.309504
vt 0.941859 0.000000
vt 0.951134 0.000000
vt 0.951134 0.379464
vt 0.941859 0.379464
vt 0.882665 0.309504
vt 0.882665 0.432397
vt 0.873389 0.432397
vt 0.873389 0.309504
vt 0.489057 0.820733
vt 0.365897 0.820733
vt 0.387307 0.792103
vt 0.467647 0.792103
vt 0.365897 0.441269
vt 0.467647 0.469900
vt 0.387307 0.469900
vt 0.980752 0.763473
vt 0.980752 0.441269
vt 0.987168 0.447619
vt 0.987168 0.757123
vt 0.132410 0.820733
vt 0.132410 0.900899
vt 0.125994 0.896096
vt 0.125994 0.826470
vt 0.993584 0.763473
vt 0.993584 0.441269
vt 1.000000 0.447619
vt 1.000000 0.757123
vt 0.891397 0.750774
vt 0.891397 0.830940
vt 0.884981 0.825202
vt 0.884981 0.755577
vt 0.974292 0.000000
vt 0.974292 0.309504
vt 0.967351 0.297464
vt 0.967351 0.012040
vt 0.883735 0.441269
vt 0.877819 0.453309
vt 0.820333 0.453309
vt 0.960453 0.441269
vt 0.960453 0.750774
vt 0.953512 0.738734
vt 0.953512 0.453309
vt 0.883735 0.750774
vt 0.813959 0.750774
vt 0.820333 0.738734
vt 0.877819 0.738734
vt 0.932583 0.000000
vt 0.941859 0.000000
vt 0.941859 0.379464
vt 0.932583 0.379464
vt 0.884981 0.750774
vt 0.884981 0.873666
vt 0.875706 0.873666
vt 0.875706 0.750774
vt 0.923308 0.000000
vt 0.932583 0.000000
vt 0.932583 0.379464
vt 0.923308 0.379464
vt 0.873389 0.309504
vt 0.873389 0.432397
vt 0.242737 0.820733
vt 0.119578 0.820733
vt 0.140987 0.792103
vt 0.221328 0.792103
vt 0.119578 0.441269
vt 0.242737 0.441269
vt 0.221328 0.469900
vt 0.140987 0.469900
vt 0.974336 0.763473
vt 0.974336 0.441269
vt 0.980752 0.447619
vt 0.980752 0.757123
vt 0.897813 0.750774
vt 0.897813 0.830940
vt 0.891397 0.826137
vt 0.891397 0.756511
vt 0.987168 0.763473
vt 0.987168 0.441269
vt 0.993584 0.447619
vt 0.993584 0.757123
vt 0.889081 0.309504
vt 0.889081 0.389670
vt 0.882665 0.383933
vt 0.882665 0.314307
vt 0.974336 0.750774
vt 0.967395 0.738734
vt 0.967395 0.453309
vt 0.953512 0.441269
vt 0.947596 0.453309
vt 0.890110 0.453309
vt 0.967395 0.441269
vt 0.967395 0.750774
vt 0.960453 0.738734
vt 0.960453 0.453309
vt 0.953512 0.750774
vt 0.890110 0.738734
vt 0.947596 0.738734
vt 0.904757 0.000000
vt 0.914033 0.000000
vt 0.914033 0.379464
vt 0.904757 0.379464
vt 0.866430 0.873666
vt 0.866430 0.750774
vt 0.951134 0.000000
vt 0.960409 0.000000
vt 0.960409 0.379464
vt 0.866430 0.750774
vt 0.866430 0.873666
vt 0.857155 0.873666
vt 0.264147 0.792103
vt 0.344487 0.792103
vt 0.344487 0.469900
vt 0.264147 0.469900
vt 0.981233 0.322203
vt 0.981233 0.000000
vt 0.987649 0.006350
vt 0.987649 0.315854
vt 0.125994 0.820733
vt 0.125994 0.900899
vt 0.119578 0.896096
vt 0.119578 0.826471
vt 0.987649 0.322203
vt 0.987649 0.000000
vt 0.994065 0.006350
vt 0.994065 0.315854
vt 0.895497 0.309504
vt 0.895497 0.389670
vt 0.889081 0.383933
vt 0.889081 0.314307
vt 0.981233 0.000000
vt 0.981233 0.309504
vt 0.974292 0.297464
vt 0.974292 0.012040
vt 0.834981 0.000000
vt 0.904757 0.000000
vt 0.898841 0.012040
vt 0.841355 0.012040
vt 0.967350 0.000000
vt 0.967350 0.309504
vt 0.960409 0.297464
vt 0.960409 0.012040
vt 0.904757 0.309504
vt 0.834981 0.309504
vt 0.841355 0.297464
vt 0.898841 0.297464
s 1
usemtl Material.001
f 21/1/1 22/2/1 11/3/2 9/4/2
f 4/5/3 3/6/3 7/7/3 8/8/3
f 8/9/4 7/10/4 5/11/4 6/12/4
f 6/13/5 2/14/5 4/15/5 8/16/5
f 2/17/6 1/18/6 3/19/6 4/20/6
f 6/21/7 5/22/7 1/23/7 2/24/7
f 23/25/8 24/26/8 10/27/9 12/28/9
f 22/29/10 23/30/10 12/31/11 11/32/11
f 24/33/12 21/34/12 9/35/13 10/36/13
f 9/4/2 11/3/2 15/37/14 13/38/14
f 10/36/13 9/35/13 13/39/15 14/40/15
f 11/32/11 12/31/11 16/41/16 15/42/16
f 12/28/9 10/27/9 14/43/17 16/44/17
f 14/40/15 13/39/15 17/45/6 18/46/6
f 15/42/16 16/41/16 20/47/4 19/48/4
f 16/44/17 14/43/17 18/49/3 20/50/3
f 13/38/14 15/37/14 19/51/7 17/52/7
f 18/53/18 17/54/18 19/55/18
f 18/53/18 19/55/18 20/56/18
f 3/19/19 1/18/19 21/34/12 24/33/12
f 5/11/20 7/10/20 23/30/10 22/29/10
f 7/57/21 3/58/21 24/59/8 23/60/8
f 1/58/22 5/57/22 22/61/1 21/62/1
f 25/63/18 29/64/18 31/65/18 27/66/18
f 28/67/3 27/68/3 31/69/3 32/70/3
f 30/71/5 26/72/5 28/73/5 32/74/5
f 30/75/7 29/76/7 25/77/7 26/78/7
f 27/79/6 28/80/6 36/81/6 35/82/6
f 26/83/6 25/13/6 33/84/6 34/85/6
f 28/80/6 26/83/6 34/85/6 36/81/6
f 25/13/6 27/79/6 35/82/6 33/84/6
f 36/86/23 34/87/23 38/88/23 40/89/23
f 35/90/24 36/91/24 40/92/24 39/93/24
f 33/94/25 35/95/25 39/96/25 37/97/25
f 34/98/26 33/99/26 37/100/26 38/101/26
f 40/102/27 38/103/27 42/104/27 44/105/27
f 39/21/28 40/106/28 44/107/28 43/108/28
f 37/109/29 39/110/29 43/111/29 41/112/29
f 38/113/30 37/114/30 41/115/30 42/116/30
f 43/108/6 44/107/6 42/116/6
f 43/108/6 42/116/6 41/115/6
f 45/117/18 49/118/18 51/119/18 47/120/18
f 48/121/3 47/122/3 51/123/3 52/124/3
f 50/125/5 46/126/5 48/127/5 52/128/5
f 50/129/7 49/130/7 45/68/7 46/67/7
f 47/131/6 48/132/6 56/133/6 55/134/6
f 46/135/6 45/136/6 53/137/6 54/138/6
f 48/132/6 46/135/6 54/138/6 56/133/6
f 45/136/6 47/131/6 55/134/6 53/137/6
f 56/139/23 54/140/23 58/141/23 60/142/23
f 55/143/24 56/144/24 60/145/24 59/146/24
f 53/147/25 55/148/25 59/149/25 57/150/25
f 54/151/26 53/152/26 57/153/26 58/154/26
f 60/140/27 58/155/27 62/156/27 64/157/27
f 59/106/28 60/158/28 64/159/28 63/160/28
f 57/161/29 59/162/29 63/163/29 61/164/29
f 58/165/30 57/113/30 61/166/30 62/167/30
f 63/160/6 64/159/6 62/167/6
f 63/160/6 62/167/6 61/166/6
f 65/168/18 69/169/18 71/170/18 67/171/18
f 68/124/3 67/123/3 71/172/3 72/173/3
f 70/174/5 66/175/5 68/176/5 72/73/5
f 70/177/7 69/178/7 65/179/7 66/59/7
f 67/80/6 68/131/6 76/180/6 75/181/6
f 66/136/6 65/83/6 73/182/6 74/183/6
f 68/131/6 66/136/6 74/183/6 76/180/6
f 65/83/6 67/80/6 75/181/6 73/182/6
f 76/184/23 74/185/23 78/186/23 80/187/23
f 75/188/24 76/189/24 80/190/24 79/191/24
f 73/192/25 75/193/25 79/194/25 77/195/25
f 74/196/26 73/197/26 77/198/26 78/199/26
f 80/200/27 78/201/27 82/202/27 84/203/27
f 79/204/28 80/205/28 84/206/28 83/207/28
f 77/208/29 79/209/29 83/210/29 81/211/29
f 78/212/30 77/213/30 81/214/30 82/215/30
f 83/207/6 84/206/6 82/215/6
f 83/207/6 82/215/6 81/214/6
o Cube.006
v 1.008473 -2.434770 0.132744
v 1.008473 -2.169282 0.132744
v 1.008473 -2.434770 -0.132744
v 1.008473 -2.169282 -0.132744
v 1.273960 -2.434770 0.132744
v 1.273960 -2.169282 0.132744
v 1.273960 -2.434770 -0.132744
v 1.273960 -2.169282 -0.132744
v 1.284819 -2.467927 0.165901
v 1.284819 -2.136125 0.165901
v 1.284819 -2.467927 -0.165901
v 1.284819 -2.136125 -0.165901
v 1.377104 -2.467927 0.165901
v 1.377104 -2.136125 0.165901
v 1.377104 -2.467927 -0.165901
v 1.377104 -2.136125 -0.165901
v 1.008473 -2.473513 0.000000
v 1.008473 -2.130539 0.000000
v 1.273960 -2.473513 0.000000
v 1.273960 -2.130539 0.000000
v 1.284819 -2.516347 0.000000
v 1.284819 -2.087705 0.000000
v 1.377104 -2.516347 0.000000
v 1.377104 -2.087705 0.000000
v 1.008473 -2.302026 0.171487
v 1.008473 -2.302026 -0.171487
v 1.273960 -2.302026 -0.171487
v 1.273960 -2.302026 0.171487
v 1.284819 -2.302026 -0.214321
v 1.284819 -2.302026 0.214321
v 1.377104 -2.302026 -0.214321
v 1.377104 -2.302026 0.214321
v 1.377104 -2.302026 0.000000
v 1.008473 -2.302026 0.000000
v 1.008473 -0.132744 0.132744
v 1.008473 0.132744 0.132744
v 1.008473 -0.132744 -0.132744
v 1.008473 0.132744 -0.132744
v 1.273960 -0.132744 0.132744
v 1.273960 0.132744 0.132744
v 1.273960 -0.132744 -0.132744
v 1.273960 0.132744 -0.132744
v 1.284819 -0.165901 0.165901
v 1.284819 0.165901 0.165901
v 1.284819 -0.165901 -0.165901
v 1.284819 0.165901 -0.165901
v 1.377104 -0.165901 0.165901
v 1.377104 0.165901 0.165901
v 1.377104 -0.165901 -0.165901
v 1.377104 0.165901 -0.165901
v 1.008473 -0.171486 0.000000
v 1.008473 0.171487 0.000000
v 1.273960 -0.171486 0.000000
v 1.273960 0.171487 0.000000
v 1.284819 -0.214321 0.000000
v 1.284819 0.214322 0.000000
v 1.377104 -0.214321 0.000000
v 1.377104 0.214322 0.000000
v 1.008473 0.000000 0.171487
v 1.008473 0.000000 -0.171487
v 1.273960 0.000000 -0.171487
v 1.273960 0.000000 0.171487
v 1.284819 0.000000 -0.214321
v 1.284819 0.000000 0.214321
v 1.377104 0.000000 -0.214321
v 1.377104 0.000000 0.214321
v 1.377104 0.000000 0.000000
v 1.008473 0.000000 0.000000
v 1.008473 2.064725 0.132744
v 1.008473 2.330212 0.132744
v 1.008473 2.064725 -0.132744
v 1.008473 2.330212 -0.132744
v 1.273960 2.064725 0.132744
v 1.273960 2.330212 0.132744
v 1.273960 2.064725 -0.132744
v 1.273960 2.330212 -0.132744
v 1.284819 2.031567 0.165901
v 1.284819 2.363370 0.165901
v 1.284819 2.031567 -0.165901
v 1.284819 2.363370 -0.165901
v 1.377104 2.031567 0.165901
v 1.377104 2.363370 0.165901
v 1.377104 2.031567 -0.165901
v 1.377104 2.363370 -0.165901
v 1.008473 2.025982 0.000000
v 1.008473 2.368955 0.000000
v 1.273960 2.025982 0.000000
v 1.273960 2.368955 0.000000
v 1.284819 1.983147 0.000000
v 1.284819 2.411790 0.000000
v 1.377104 1.983147 0.000000
v 1.377104 2.411790 0.000000
v 1.008473 2.197469 0.171487
v 1.008473 2.197469 -0.171487
v 1.273960 2.197469 -0.171487
v 1.273960 2.197469 0.171487
v 1.284819 2.197469 -0.214321
v 1.284819 2.197469 0.214321
v 1.377104 2.197469 -0.214321
v 1.377104 2.197469 0.214321
v 1.377104 2.197469 0.000000
v 1.008473 2.197469 0.000000
vn -1.0000 -0.0000 -0.0000
vn -0.0000 -0.0000 -1.0000
vn -0.0000 0.2802 -0.9599
vn -0.9693 0.2457 -0.0000
vn -0.9742 0.1595 0.1595
vn -0.0000 -0.0000 1.0000
vn -0.0000 0.2802 0.9599
vn -0.0000 -1.0000 -0.0000
vn -0.0000 -0.9599 0.2802
vn -0.0000 1.0000 -0.0000
vn -0.0000 0.9599 0.2802
vn -0.9693 -0.0000 -0.2457
vn -0.9742 0.1595 -0.1595
vn -0.9693 -0.0000 0.2457
vn -0.9742 -0.1595 0.1595
vn -0.9693 -0.2457 -0.0000
vn -0.9742 -0.1595 -0.1595
vn -0.0000 -0.2802 0.9599
vn -0.0000 -0.9599 -0.2802
vn 1.0000 -0.0000 -0.0000
vn -0.0000 0.9599 -0.2802
vn -0.0000 -0.2802 -0.9599
vt 0.556237 0.509917
vt 0.648956 0.536979
vt 0.607061 0.602637
vt 0.529175 0.602637
vt 0.873255 0.381292
vt 0.798489 0.381292
vt 0.798489 0.231759
vt 0.873255 0.231759
vt 0.208599 0.374700
vt 0.208599 0.296814
vt 0.231759 0.284119
vt 0.231759 0.381459
vt 0.837349 0.901702
vt 0.762582 0.901702
vt 0.762582 0.752169
vt 0.837349 0.752169
vt 0.463517 0.677403
vt 0.613050 0.677403
vt 0.613050 0.752169
vt 0.463517 0.752169
vt 0.648956 0.456058
vt 0.798489 0.456058
vt 0.798489 0.530824
vt 0.648956 0.530824
vt 0.088818 0.440358
vt 0.166704 0.440358
vt 0.179399 0.463518
vt 0.082058 0.463518
vt 0.142941 0.254919
vt 0.065055 0.254919
vt 0.052360 0.231759
vt 0.149700 0.231759
vt 0.023160 0.320577
vt 0.023160 0.398463
vt 0.000000 0.411158
vt 0.000000 0.313817
vt 0.948021 0.287850
vt 0.948021 0.194408
vt 1.000000 0.194408
vt 1.000000 0.287850
vt 0.850467 0.474733
vt 0.850467 0.381292
vt 0.902446 0.381292
vt 0.902446 0.474733
vt 0.948766 0.093442
vt 0.948766 0.186883
vt 0.896787 0.186883
vt 0.896787 0.093442
vt 0.335716 0.891931
vt 0.335716 0.985373
vt 0.283737 0.985373
vt 0.283737 0.891931
vt 0.347638 0.347638
vt 0.463517 0.381459
vt 0.411157 0.463518
vt 0.313817 0.463518
vt 0.381459 0.231759
vt 0.463517 0.284119
vt 0.948766 0.000000
vt 0.896787 0.000000
vt 0.850467 0.568175
vt 0.902446 0.568175
vt 0.648956 0.381292
vt 0.798489 0.381292
vt 0.463517 0.602637
vt 0.613050 0.602637
vt 0.583298 0.417198
vt 0.648956 0.459093
vt 0.505412 0.417198
vt 0.463517 0.482856
vt 0.284119 0.231759
vt 0.231759 0.313817
vt 0.231759 0.411158
vt 0.335716 0.798489
vt 0.283737 0.798489
vt 0.948021 0.381292
vt 1.000000 0.381292
vt 0.912115 0.901702
vt 0.912115 0.752169
vt 0.948021 0.381292
vt 0.948021 0.231759
vt 0.463517 0.560742
vt 0.324477 0.556237
vt 0.417197 0.583298
vt 0.375301 0.648957
vt 0.297416 0.648957
vt 0.613050 0.826936
vt 0.613050 0.901702
vt 0.463517 0.901702
vt 0.463517 0.826936
vt 0.023159 0.552336
vt 0.023159 0.630221
vt 0.000000 0.642916
vt 0.000000 0.545576
vt 0.912115 0.677402
vt 0.912115 0.752169
vt 0.762582 0.752169
vt 0.762582 0.677402
vt 0.695276 0.074766
vt 0.844808 0.074766
vt 0.844808 0.149533
vt 0.695276 0.149533
vt 0.231759 0.723723
vt 0.381291 0.723723
vt 0.381291 0.798489
vt 0.231759 0.798489
vt 0.142941 0.486678
vt 0.065056 0.486678
vt 0.052361 0.463518
vt 0.149700 0.463518
vt 0.088818 0.672116
vt 0.166704 0.672116
vt 0.179399 0.695276
vt 0.082058 0.695276
vt 0.208599 0.606458
vt 0.208599 0.528573
vt 0.231758 0.515878
vt 0.231758 0.613218
vt 0.149533 0.788717
vt 0.149533 0.695276
vt 0.201511 0.695276
vt 0.201511 0.788717
vt 0.844808 0.093442
vt 0.844808 0.000000
vt 0.896787 0.000000
vt 0.896787 0.093442
vt 0.954425 0.474733
vt 0.954425 0.568175
vt 0.964094 0.696077
vt 0.964094 0.789520
vt 0.912115 0.789520
vt 0.912115 0.696077
vt 0.579397 0.115879
vt 0.463518 0.082058
vt 0.515879 0.000000
vt 0.613218 0.000000
vt 0.545576 0.231759
vt 0.463518 0.179399
vt 0.954425 0.381292
vt 0.844808 0.186883
vt 0.896787 0.186883
vt 0.231759 0.648957
vt 0.381291 0.648957
vt 0.695276 0.000000
vt 0.844808 0.000000
vt 0.351539 0.463518
vt 0.417196 0.505413
vt 0.273653 0.463518
vt 0.231758 0.529176
vt 0.642918 0.231759
vt 0.695276 0.149700
vt 0.695276 0.052360
vt 0.964094 0.602636
vt 0.912115 0.602636
vt 0.149533 0.882160
vt 0.201511 0.882160
vt 0.912115 0.602636
vt 0.762582 0.602636
vt 0.613050 0.752170
vt 0.463517 0.752170
vt 0.231758 0.607061
vt 0.556236 0.324478
vt 0.583298 0.231758
vt 0.648956 0.273655
vt 0.648956 0.351540
vt 0.687817 0.901702
vt 0.613049 0.901702
vt 0.613049 0.752169
vt 0.687817 0.752169
vt 0.142941 0.023159
vt 0.065055 0.023159
vt 0.052360 0.000000
vt 0.149701 0.000000
vt 0.074768 0.844809
vt 0.000000 0.844809
vt 0.000000 0.695276
vt 0.074768 0.695276
vt 0.648956 0.306525
vt 0.798489 0.306525
vt 0.798489 0.381292
vt 0.648956 0.381292
vt 0.613050 0.677403
vt 0.762582 0.677403
vt 0.762582 0.752169
vt 0.613050 0.752169
vt 0.208599 0.142941
vt 0.208599 0.065056
vt 0.231759 0.052361
vt 0.231759 0.149700
vt 0.023160 0.088818
vt 0.023160 0.166702
vt 0.000000 0.179398
vt 0.000000 0.082058
vt 0.088818 0.208599
vt 0.166704 0.208599
vt 0.179399 0.231758
vt 0.082058 0.231758
vt 0.798489 0.474731
vt 0.798489 0.381290
vt 0.850467 0.381290
vt 0.850467 0.474731
vt 0.912115 0.882962
vt 0.912115 0.789520
vt 0.964094 0.789520
vt 0.964094 0.882962
vt 0.283737 0.891931
vt 0.283737 0.985372
vt 0.231758 0.985372
vt 0.231758 0.891931
vt 0.433270 0.742397
vt 0.433270 0.835838
vt 0.381291 0.835838
vt 0.381291 0.742397
vt 0.347638 0.115879
vt 0.381459 0.000000
vt 0.463517 0.052361
vt 0.463517 0.149700
vt 0.231759 0.082058
vt 0.284119 0.000000
vt 0.283737 0.798489
vt 0.231758 0.798489
vt 0.912115 0.976404
vt 0.964094 0.976404
vt 0.613050 0.602637
vt 0.762582 0.602637
vt 0.648956 0.231759
vt 0.798489 0.231759
vt 0.463517 0.297417
vt 0.505412 0.231758
vt 0.463517 0.375301
vt 0.529175 0.417198
vt 0.231759 0.179398
vt 0.313817 0.231758
vt 0.411158 0.231758
vt 0.433270 0.648956
vt 0.381291 0.648956
vt 0.798489 0.568172
vt 0.850467 0.568172
vt 0.149532 0.844809
vt 0.149532 0.695276
vt 0.762581 0.901702
vt 0.762581 0.752169
vt 0.607061 0.417198
s 1
usemtl Material
f 118/216/31 102/217/31 88/218/31 110/219/31
f 110/220/32 88/221/33 92/222/33 111/223/32
f 104/224/34 90/225/35 94/226/35 106/227/34
f 112/228/36 90/229/37 86/230/37 109/231/36
f 101/232/38 103/233/38 89/234/39 85/235/39
f 104/236/40 102/237/40 86/238/41 90/239/41
f 111/240/42 92/241/43 96/242/43 113/243/42
f 112/244/44 89/245/45 93/246/45 114/247/44
f 103/248/46 91/249/47 95/250/47 105/251/46
f 114/252/36 93/253/48 97/254/48 116/255/36
f 105/256/38 95/257/49 99/258/49 107/259/38
f 106/260/40 94/261/41 98/262/41 108/263/40
f 113/264/32 96/265/33 100/266/33 115/267/32
f 117/268/50 108/269/50 98/270/50 116/271/50
f 115/272/50 100/273/50 108/269/50 117/268/50
f 96/274/51 106/260/40 108/263/40 100/275/51
f 93/276/39 105/256/38 107/259/38 97/277/39
f 89/245/45 103/248/46 105/251/46 93/246/45
f 92/278/51 88/279/51 102/237/40 104/236/40
f 87/280/49 91/281/49 103/233/38 101/232/38
f 92/241/43 104/224/34 106/227/34 96/242/43
f 109/282/31 86/283/31 102/217/31 118/216/31
f 85/284/31 109/282/31 118/216/31 101/285/31
f 99/286/50 115/272/50 117/268/50 107/287/50
f 107/287/50 117/268/50 116/271/50 97/288/50
f 95/289/52 113/264/32 115/267/32 99/290/52
f 94/291/37 114/252/36 116/255/36 98/292/37
f 90/225/35 112/244/44 114/247/44 94/226/35
f 91/249/47 111/240/42 113/243/42 95/250/47
f 89/293/48 112/228/36 109/231/36 85/294/48
f 87/295/52 110/220/32 111/223/32 91/296/52
f 101/285/31 118/216/31 110/219/31 87/297/31
f 152/298/31 136/299/31 122/300/31 144/301/31
f 144/302/32 122/303/33 126/304/33 145/305/32
f 138/306/34 124/307/35 128/308/35 140/309/34
f 146/310/36 124/311/37 120/312/37 143/313/36
f 135/314/38 137/315/38 123/316/39 119/317/39
f 138/318/40 136/319/40 120/320/41 124/321/41
f 145/322/42 126/323/43 130/324/43 147/325/42
f 146/326/44 123/327/45 127/328/45 148/329/44
f 137/330/46 125/331/47 129/332/47 139/333/46
f 148/334/36 127/335/48 131/336/48 150/337/36
f 139/338/38 129/339/49 133/340/49 141/341/38
f 140/342/40 128/343/41 132/277/41 142/259/40
f 147/344/32 130/345/33 134/346/33 149/347/32
f 151/348/50 142/349/50 132/350/50 150/351/50
f 149/352/50 134/353/50 142/349/50 151/348/50
f 130/354/51 140/342/40 142/259/40 134/258/51
f 127/355/39 139/338/38 141/341/38 131/356/39
f 123/327/45 137/330/46 139/333/46 127/328/45
f 126/357/51 122/358/51 136/319/40 138/318/40
f 121/359/49 125/360/49 137/315/38 135/314/38
f 126/323/43 138/306/34 140/309/34 130/324/43
f 143/361/31 120/362/31 136/299/31 152/298/31
f 119/363/31 143/361/31 152/298/31 135/364/31
f 133/365/50 149/352/50 151/348/50 141/366/50
f 141/366/50 151/348/50 150/351/50 131/367/50
f 129/368/52 147/344/32 149/347/32 133/369/52
f 128/370/37 148/334/36 150/337/36 132/371/37
f 124/307/35 146/326/44 148/329/44 128/308/35
f 125/331/47 145/322/42 147/325/42 129/332/47
f 123/372/48 146/310/36 143/313/36 119/373/48
f 121/374/52 144/302/32 145/305/32 125/375/52
f 135/364/31 152/298/31 144/301/31 121/376/31
f 186/377/31 170/378/31 156/379/31 178/380/31
f 178/381/32 156/382/33 160/383/33 179/384/32
f 172/385/34 158/386/35 162/387/35 174/388/34
f 180/389/36 158/390/37 154/391/37 177/392/36
f 169/393/38 171/394/38 157/395/39 153/396/39
f 172/397/40 170/398/40 154/399/41 158/400/41
f 179/401/42 160/402/43 164/403/43 181/404/42
f 180/405/44 157/406/45 161/407/45 182/408/44
f 171/409/46 159/410/47 163/411/47 173/412/46
f 182/413/36 161/414/48 165/415/48 184/416/36
f 173/417/38 163/418/49 167/419/49 175/420/38
f 174/421/40 162/422/41 166/423/41 176/424/40
f 181/425/32 164/426/33 168/427/33 183/428/32
f 185/429/50 176/430/50 166/431/50 184/432/50
f 183/433/50 168/434/50 176/430/50 185/429/50
f 164/435/51 174/421/40 176/424/40 168/436/51
f 161/437/39 173/417/38 175/420/38 165/438/39
f 157/406/45 171/409/46 173/412/46 161/407/45
f 160/439/51 156/440/51 170/398/40 172/397/40
f 155/441/49 159/442/49 171/394/38 169/393/38
f 160/402/43 172/385/34 174/388/34 164/403/43
f 177/443/31 154/444/31 170/378/31 186/377/31
f 153/445/31 177/443/31 186/377/31 169/446/31
f 167/447/50 183/433/50 185/429/50 175/448/50
f 175/448/50 185/429/50 184/432/50 165/449/50
f 163/450/52 181/425/32 183/428/32 167/451/52
f 162/452/37 182/413/36 184/416/36 166/453/37
f 158/386/35 180/405/44 182/408/44 162/387/35
f 159/410/47 179/401/42 181/404/42 163/411/47
f 157/454/48 180/389/36 177/392/36 153/455/48
f 155/456/52 178/381/32 179/384/32 159/457/52
f 169/446/31 186/377/31 178/380/31 155/458/31
